<?xml version="1.0" standalone="no"?>
<!DOCTYPE svg PUBLIC "-//W3C//DTD SVG 20010904//EN"
 "http://www.w3.org/TR/2001/REC-SVG-20010904/DTD/svg10.dtd">
<svg version="1.0" xmlns="http://www.w3.org/2000/svg"
 width="733.000000pt" height="733.000000pt" viewBox="0 0 733.000000 733.000000"
 preserveAspectRatio="xMidYMid meet">
<metadata>
Created by potrace 1.14, written by Peter Selinger 2001-2017
</metadata>
<g transform="translate(0.000000,733.000000) scale(0.100000,-0.100000)"
fill="#000000" stroke="none">
<path d="M3535 7219 c-4 -6 -5 -12 -2 -15 2 -3 7 2 10 11 7 17 1 20 -8 4z"/>
<path d="M4075 7221 c-3 -5 -2 -12 3 -15 5 -3 9 1 9 9 0 17 -3 19 -12 6z"/>
<path d="M3816 7203 c-6 -14 -5 -15 5 -6 7 7 10 15 7 18 -3 3 -9 -2 -12 -12z"/>
<path d="M3639 7195 c-1 -3 -2 -10 -3 -17 -1 -8 -18 -12 -46 -12 -32 1 -44 5
-42 14 2 11 0 11 -11 1 -8 -6 -25 -14 -37 -16 -17 -3 -21 -1 -16 13 6 16 5 16
-7 0 -13 -16 -15 -16 -32 0 -10 9 -15 12 -11 5 9 -17 -2 -21 -64 -25 -41 -2
-54 0 -52 10 1 8 -2 11 -8 7 -6 -3 -8 -10 -6 -14 5 -8 -28 -12 -116 -15 -25 0
-44 -5 -40 -10 3 -5 -2 -7 -11 -3 -9 3 -18 1 -21 -6 -3 -8 -5 -8 -5 2 -1 10
-7 10 -27 -4 -15 -9 -23 -12 -19 -6 8 14 -42 4 -62 -12 -10 -7 -13 -3 -14 14
l0 24 -10 -23 c-5 -13 -14 -22 -20 -20 -12 4 -11 24 0 21 4 -1 8 5 8 13 0 12
-3 11 -18 -2 -10 -9 -16 -21 -13 -27 3 -8 -8 -13 -28 -14 -51 -4 -58 -6 -58
-16 0 -5 -8 -3 -17 4 -14 12 -16 12 -8 0 6 -11 4 -13 -7 -8 -9 3 -19 2 -24 -3
-5 -5 -22 -11 -39 -13 -16 -3 -43 -10 -58 -16 -36 -14 -41 -14 -31 2 5 7 1 5
-8 -6 -10 -10 -22 -16 -27 -13 -5 4 -12 2 -16 -4 -4 -6 -10 -8 -15 -5 -5 3
-11 1 -15 -5 -3 -5 -15 -10 -26 -10 -10 0 -19 -5 -19 -11 0 -6 -8 -3 -17 8
-10 10 -15 14 -10 7 4 -6 2 -16 -5 -22 -14 -11 -98 -37 -110 -34 -5 1 -8 -2
-8 -8 0 -5 -7 -6 -17 -3 -12 5 -14 3 -8 -7 5 -8 4 -11 -2 -7 -6 4 -18 0 -29
-7 -10 -8 -24 -12 -31 -9 -7 3 -13 1 -13 -5 0 -5 -12 -13 -27 -17 -16 -3 -36
-14 -45 -22 -10 -9 -18 -13 -18 -10 0 6 -81 -29 -110 -48 -8 -5 -17 -10 -20
-10 -17 -3 -100 -51 -100 -58 0 -4 -4 -6 -8 -3 -5 3 -19 -4 -30 -15 -12 -11
-22 -15 -22 -9 0 5 -5 10 -11 10 -5 0 -7 -5 -4 -11 4 -6 -2 -13 -14 -16 -12
-3 -21 -10 -21 -15 0 -5 -4 -6 -10 -3 -5 3 -10 1 -10 -4 0 -6 -7 -11 -15 -11
-8 0 -15 -4 -15 -10 0 -5 -5 -10 -12 -10 -6 0 -25 -11 -42 -24 -17 -13 -35
-25 -41 -27 -5 -2 -19 -13 -31 -24 -12 -12 -35 -27 -51 -35 -15 -8 -35 -21
-44 -30 -34 -31 -59 -50 -59 -42 0 4 -11 -6 -25 -22 -14 -16 -25 -26 -25 -22
0 4 -10 -3 -22 -16 -13 -13 -39 -35 -58 -49 -19 -15 -52 -43 -73 -63 -21 -20
-43 -34 -48 -30 -5 3 -8 0 -7 -8 2 -7 -2 -12 -9 -11 -7 2 -10 -4 -6 -13 3 -8
2 -14 -3 -12 -5 2 -10 1 -11 -2 0 -3 -47 -51 -102 -108 -56 -56 -101 -107
-101 -113 0 -5 -5 -7 -10 -4 -5 3 -10 1 -10 -4 0 -17 -33 -50 -43 -44 -6 3 -7
1 -4 -4 8 -13 -88 -134 -99 -125 -4 4 -5 2 -1 -3 3 -6 -1 -19 -9 -30 -13 -17
-16 -18 -25 -5 -8 12 -9 10 -4 -7 4 -15 -6 -37 -37 -78 -24 -32 -42 -61 -41
-64 1 -3 -5 -10 -13 -14 -8 -4 -14 -13 -14 -18 0 -6 -9 -22 -20 -36 -11 -14
-17 -30 -13 -36 4 -6 0 -8 -10 -4 -9 3 -16 3 -15 -1 2 -14 -24 -72 -33 -72 -5
0 -9 -9 -9 -20 0 -11 -3 -20 -8 -20 -4 0 -13 -15 -21 -32 -8 -18 -23 -45 -33
-60 -11 -16 -16 -28 -11 -28 4 0 3 -4 -2 -8 -12 -8 -39 -64 -37 -74 1 -5 -3
-8 -9 -8 -5 0 -7 -4 -4 -10 3 -5 1 -10 -4 -10 -6 0 -10 -3 -9 -7 1 -5 -3 -17
-9 -28 -6 -11 -12 -23 -12 -27 -5 -24 -24 -68 -29 -68 -4 0 -8 -12 -9 -26 0
-15 -7 -30 -15 -35 -7 -5 -9 -9 -4 -9 5 0 4 -6 -2 -12 -6 -7 -11 -17 -12 -23
-1 -5 -7 -21 -13 -35 -11 -26 -14 -35 -16 -58 0 -7 -5 -11 -9 -8 -5 3 -8 -5
-7 -17 1 -12 -3 -28 -9 -36 -6 -8 -10 -16 -8 -18 6 -8 1 -24 -6 -19 -4 3 -7
-8 -6 -24 1 -16 -4 -34 -11 -40 -8 -6 -11 -18 -8 -26 3 -8 1 -20 -5 -27 -5 -6
-10 -19 -10 -27 -1 -16 -9 -55 -12 -55 -2 0 -9 -33 -15 -65 -2 -14 -4 -25 -5
-25 -2 0 -6 -22 -14 -70 -4 -22 -9 -47 -11 -55 -5 -15 -7 -31 -20 -130 -4 -30
-9 -59 -12 -63 -3 -4 -7 -56 -9 -115 -3 -66 -10 -109 -17 -114 -7 -4 -7 -8 -2
-8 12 0 13 -65 2 -76 -4 -4 -2 -13 4 -21 6 -7 8 -13 3 -13 -5 0 -9 -22 -9 -50
0 -27 4 -50 8 -50 5 0 5 -6 1 -12 -5 -7 -7 -29 -5 -48 8 -85 7 -110 -3 -110
-8 0 -8 -3 0 -8 6 -4 11 -14 12 -22 4 -68 12 -159 16 -178 3 -13 8 -50 11 -82
3 -33 10 -73 15 -89 4 -16 6 -32 3 -34 -2 -3 0 -15 7 -26 8 -16 8 -21 -2 -21
-9 0 -10 -2 -2 -8 7 -4 14 -25 15 -47 2 -22 7 -43 12 -46 4 -3 8 -22 9 -42 1
-20 4 -37 8 -37 4 0 7 -6 8 -12 1 -22 12 -66 22 -93 5 -14 7 -25 4 -25 -4 0
-1 -7 6 -15 10 -12 10 -15 -1 -15 -9 0 -10 -3 -3 -8 16 -11 37 -70 30 -87 -3
-9 -2 -13 4 -10 6 3 10 3 11 -2 1 -8 4 -28 10 -53 2 -8 7 -17 11 -20 4 -3 9
-15 11 -25 2 -11 9 -33 16 -48 6 -16 8 -34 4 -40 -3 -7 -2 -9 2 -4 5 4 19 -18
32 -50 27 -66 27 -66 11 -58 -7 3 -3 -2 9 -11 13 -9 23 -24 23 -33 0 -9 7 -25
15 -35 8 -10 12 -23 9 -27 -3 -5 0 -9 7 -9 6 0 9 -8 6 -20 -3 -11 -1 -18 4
-14 11 6 32 -44 23 -57 -3 -5 0 -8 7 -7 7 2 17 -10 23 -27 6 -16 16 -35 21
-41 6 -6 19 -30 29 -53 11 -22 23 -41 29 -41 5 0 3 -8 -4 -17 -8 -9 -9 -14 -3
-10 6 3 16 -2 22 -11 29 -42 92 -143 92 -148 0 -3 11 -17 25 -32 14 -15 23
-33 20 -40 -3 -7 -1 -11 4 -8 4 3 14 -6 21 -19 7 -14 17 -25 22 -25 4 0 8 -5
8 -10 0 -6 6 -17 13 -25 6 -8 23 -28 37 -44 62 -71 71 -85 66 -98 -3 -8 -1
-11 4 -8 10 6 18 -1 95 -90 28 -31 49 -61 48 -66 -2 -5 3 -8 10 -6 6 1 11 -4
10 -10 -2 -7 3 -12 10 -10 7 1 11 -8 10 -23 -1 -14 1 -19 3 -12 12 27 40 10
35 -20 0 -5 5 -8 11 -8 7 0 24 -11 38 -24 14 -14 41 -41 62 -60 20 -20 41 -36
48 -36 6 0 8 -4 5 -10 -3 -5 1 -10 10 -10 9 0 14 -4 10 -9 -3 -5 4 -12 15 -16
11 -3 20 -10 20 -15 0 -5 9 -12 20 -15 11 -3 20 -11 20 -16 0 -6 -5 -7 -12 -3
-7 4 -8 3 -4 -5 6 -9 11 -9 24 1 13 11 15 10 9 -5 -4 -11 -3 -16 3 -12 6 3 13
-1 16 -9 3 -9 10 -16 16 -16 5 0 6 5 2 12 -4 7 -3 8 4 4 6 -4 9 -13 5 -21 -3
-10 2 -15 16 -15 12 0 21 -5 21 -11 0 -5 4 -7 10 -4 9 6 15 -17 10 -40 -1 -5
2 -7 5 -3 4 4 17 3 29 -3 17 -9 17 -7 -4 11 l-25 22 32 -18 c18 -10 30 -21 27
-26 -3 -4 0 -8 6 -8 6 0 8 -5 4 -12 -6 -10 -4 -10 8 0 14 11 17 10 23 -8 5
-15 13 -20 25 -17 12 3 17 0 14 -8 -3 -7 0 -16 7 -21 8 -4 10 -3 5 4 -5 8 -2
10 8 6 9 -3 16 -10 16 -16 0 -5 4 -7 9 -3 5 3 12 1 16 -5 4 -6 11 -8 16 -4 5
3 9 2 8 -3 -3 -19 2 -33 12 -33 5 0 7 5 3 12 -4 7 -3 8 4 4 7 -4 12 -13 12
-20 0 -7 16 -20 36 -29 24 -12 33 -13 29 -5 -4 7 1 4 9 -6 12 -15 16 -16 17
-5 0 8 4 4 9 -9 5 -12 15 -22 21 -22 8 0 7 6 -2 18 -13 15 -12 16 3 3 10 -7
15 -18 11 -24 -4 -6 0 -8 10 -4 10 3 17 2 17 -4 0 -6 4 -8 8 -5 4 2 14 1 22
-4 10 -6 1 -8 -27 -5 -24 2 -43 1 -43 -3 0 -4 26 -8 57 -9 31 -2 60 -8 64 -14
4 -6 11 -9 17 -5 6 3 13 2 17 -4 4 -6 10 -8 14 -6 4 3 8 -1 9 -9 1 -8 3 -22 4
-30 1 -8 5 -15 10 -15 5 0 6 12 4 26 l-5 27 22 -21 c12 -11 24 -20 27 -19 3 0
14 -5 25 -12 15 -9 16 -11 3 -7 -10 3 -18 1 -18 -4 0 -6 12 -10 26 -10 16 0
23 4 18 11 -4 8 0 8 15 0 11 -7 21 -17 21 -24 0 -8 -3 -7 -9 2 -8 12 -12 12
-25 2 -9 -8 -16 -19 -16 -25 0 -6 5 -3 11 7 6 10 15 14 22 10 7 -4 21 -9 32
-10 16 -3 17 -1 5 7 -20 13 -4 13 21 -1 11 -6 30 -12 41 -14 25 -5 34 -13 24
-22 -4 -4 -11 -1 -16 7 -6 8 -10 11 -10 7 0 -4 -9 -3 -19 3 -14 7 -22 7 -27
-2 -4 -7 -3 -8 4 -4 7 4 12 2 12 -3 0 -6 3 -10 8 -10 4 1 14 1 22 0 13 -1 13
-2 0 -11 -8 -5 -10 -10 -5 -10 6 0 20 7 32 15 13 9 24 11 28 6 3 -6 12 -8 20
-4 8 3 15 0 15 -7 0 -6 4 -9 8 -6 4 2 14 1 22 -4 12 -7 12 -11 -1 -26 -9 -11
-9 -15 -2 -10 7 4 13 3 13 -3 0 -5 -5 -12 -10 -14 -6 -3 -5 -4 2 -3 7 2 12 11
12 20 -1 9 2 16 8 16 5 0 6 5 2 12 -4 7 -3 8 4 4 6 -4 8 -14 5 -24 -6 -15 -5
-16 12 -2 11 9 16 10 11 3 -4 -8 -1 -13 9 -13 9 0 13 5 10 10 -3 6 -1 10 4 10
6 0 11 -5 11 -10 0 -6 3 -9 8 -9 4 1 10 0 15 -1 4 -1 12 -4 17 -5 6 -1 11 -3
13 -5 1 -1 15 -4 32 -6 16 -3 32 -9 35 -13 3 -5 13 -7 22 -5 10 1 20 -2 24 -7
3 -5 10 -6 16 -3 7 5 9 2 6 -7 -3 -8 -2 -23 3 -34 6 -17 8 -17 8 -2 1 9 5 17
11 17 5 0 7 -8 4 -17 -4 -13 -3 -14 3 -5 11 14 33 13 46 -3 5 -6 7 -4 4 5 -2
8 -8 15 -13 15 -23 2 -54 17 -54 28 0 8 3 8 12 -1 7 -7 22 -12 34 -12 23 0 41
-31 29 -50 -3 -5 -4 -10 0 -10 3 0 10 12 15 26 8 20 15 24 28 18 9 -4 29 -7
45 -7 15 1 27 -4 27 -9 0 -5 4 -7 9 -3 19 11 23 -17 5 -31 -11 -9 -13 -13 -6
-9 7 4 21 1 30 -7 15 -12 16 -11 3 5 -8 10 -9 17 -3 17 6 0 9 8 6 17 -5 15 -4
15 4 4 9 -12 13 -12 26 -2 13 11 15 10 12 -6 -3 -12 7 -23 29 -34 31 -15 32
-14 22 2 -6 10 -14 16 -18 13 -4 -2 -10 0 -13 5 -4 5 -2 12 3 15 5 4 13 1 17
-5 4 -8 9 -7 16 2 8 11 8 10 4 -4 -3 -11 0 -20 9 -23 8 -4 13 -9 11 -13 -3 -4
4 -7 13 -7 15 0 16 4 8 17 -6 10 -15 15 -21 12 -5 -4 -6 -1 -1 7 6 10 11 10
20 -3 12 -17 31 -24 21 -9 -2 4 4 8 14 8 10 0 16 -4 14 -8 -6 -10 10 -11 20
-1 3 4 13 8 22 9 12 2 13 0 3 -12 -6 -8 -14 -12 -17 -9 -3 3 -11 0 -19 -6 -9
-9 -13 -8 -13 0 0 21 -16 11 -17 -11 -2 -18 0 -20 7 -8 9 14 15 6 10 -15 -1
-5 2 -6 7 -2 4 5 9 13 9 18 1 5 2 12 3 15 0 4 9 0 18 -7 14 -12 16 -12 9 0 -6
9 -5 12 4 9 7 -2 14 -12 16 -22 1 -10 6 -21 9 -24 4 -4 5 1 3 12 -2 13 4 20
20 22 13 2 22 -1 22 -9 1 -6 8 1 16 16 10 19 19 25 27 20 7 -5 22 -8 35 -7 12
0 22 -3 22 -7 0 -5 5 -8 11 -7 6 2 14 -4 16 -12 4 -13 3 -13 -7 0 -10 13 -11
13 -7 0 2 -8 11 -14 20 -12 8 1 18 -2 22 -8 5 -8 11 -8 21 1 8 6 23 9 33 6 11
-3 22 1 25 8 3 9 -7 12 -40 10 -27 -1 -48 3 -55 12 -9 9 -9 13 0 13 6 0 11 -5
11 -11 0 -8 4 -8 14 0 11 9 15 9 19 -1 4 -9 8 -10 14 -2 4 5 18 10 29 10 16 0
21 -6 19 -22 -1 -15 2 -21 12 -17 7 3 12 12 11 21 -3 16 28 26 37 12 3 -5 15
-7 28 -4 45 10 67 11 67 3 0 -5 -7 -9 -16 -9 -8 0 -12 -5 -9 -10 4 -6 11 -7
17 -4 7 4 8 2 4 -5 -4 -6 -12 -9 -17 -6 -20 13 -7 -11 15 -27 18 -13 23 -13
23 -3 0 8 -3 13 -6 12 -3 -1 -8 2 -11 7 -3 5 3 10 13 12 9 1 17 -3 17 -9 0 -8
3 -9 8 -1 4 6 15 13 25 17 10 4 15 12 11 18 -4 8 -9 7 -15 -2 -5 -8 -9 -9 -9
-4 0 6 -5 3 -10 -5 -9 -13 -10 -13 -10 0 0 13 -1 13 -10 0 -5 -8 -10 -10 -10
-5 0 21 16 30 53 31 39 1 45 -4 25 -25 -11 -11 -8 -12 12 -7 22 6 23 6 8 -7
-15 -12 -15 -14 5 -27 20 -12 21 -12 9 3 -9 10 -10 17 -2 22 14 9 32 -4 24
-17 -4 -7 -2 -8 4 -4 9 5 9 12 0 26 -7 10 -14 18 -17 17 -4 -1 -7 3 -8 8 -2 6
1 10 6 10 5 0 13 3 17 7 4 4 13 3 21 -3 8 -7 13 -7 13 -2 0 6 14 9 30 7 19 -2
30 1 30 9 0 8 3 8 9 -2 6 -9 10 -10 16 -2 5 9 10 9 21 0 16 -13 19 -44 4 -34
-6 4 -8 10 -5 15 3 4 -3 7 -12 5 -10 -2 -18 -4 -18 -5 0 -1 -22 -3 -50 -4 -28
-1 -48 -6 -45 -12 5 -10 70 -13 70 -3 0 3 12 6 28 5 15 -1 26 -6 25 -13 -2 -8
4 -10 14 -6 10 4 14 2 10 -4 -3 -5 0 -10 8 -10 11 0 12 4 4 13 -6 7 -8 18 -4
24 4 6 2 16 -3 23 -8 9 -3 13 18 13 19 1 30 -4 33 -16 5 -19 48 -21 55 -2 2 7
9 9 15 5 18 -11 38 -12 32 -2 -12 19 14 46 42 44 15 -1 33 1 38 4 6 3 19 6 30
7 11 0 38 6 59 12 22 6 42 9 44 7 3 -2 14 1 26 7 29 17 54 20 61 8 3 -6 11
-10 17 -10 6 0 5 7 -3 18 -7 9 -9 14 -5 10 5 -4 16 -2 25 5 14 11 14 10 2 -5
-7 -10 -10 -18 -6 -18 4 0 2 -7 -5 -15 -7 -9 -10 -18 -6 -22 3 -3 6 -1 6 6 0
7 5 9 12 5 6 -4 9 -3 5 2 -3 5 1 20 9 34 14 23 14 23 9 3 -4 -13 -2 -23 4 -23
5 0 11 9 13 20 2 12 7 20 12 20 5 -1 13 4 17 12 7 10 9 8 9 -6 0 -11 -5 -16
-13 -13 -7 3 -13 -3 -14 -13 -1 -16 1 -17 25 -4 15 8 33 14 40 14 6 0 12 8 12
18 0 9 -4 13 -8 7 -9 -12 -32 -18 -32 -8 0 5 11 13 25 19 13 7 24 9 23 5 -3
-28 24 -39 50 -18 7 5 15 7 19 4 3 -4 12 1 19 11 9 11 13 13 14 4 0 -7 5 -10
10 -7 6 3 10 14 10 23 0 13 -2 14 -9 4 -4 -8 -12 -13 -17 -12 -5 0 -18 -2 -29
-6 -11 -3 -27 -5 -35 -5 -13 2 -13 1 0 -9 10 -8 11 -10 2 -8 -15 4 -12 23 3
23 6 0 17 5 25 10 15 10 20 11 41 14 5 0 7 7 3 13 -4 7 3 4 16 -7 20 -17 22
-17 17 -3 -4 13 -2 15 10 11 10 -4 14 -2 9 5 -11 18 11 23 25 4 7 -9 9 -14 5
-10 -10 9 -36 -9 -36 -24 0 -5 10 -2 22 6 17 12 25 13 37 4 13 -10 14 -10 4 2
-15 16 -17 50 -4 50 6 0 13 -5 17 -12 4 -7 3 -8 -4 -4 -7 4 -12 2 -12 -4 0
-15 42 -8 74 13 23 15 30 16 44 5 9 -7 14 -8 10 -4 -4 5 -3 15 2 21 8 9 5 12
-7 11 -10 0 -19 4 -20 9 -3 12 18 14 32 4 16 -12 43 -15 47 -5 2 5 -5 10 -15
12 -11 1 -22 6 -25 10 -4 4 1 4 10 1 11 -4 23 1 32 15 9 12 19 19 22 15 4 -4
18 0 32 9 13 8 26 13 29 10 10 -10 44 15 37 27 -4 7 -4 9 1 5 4 -4 20 1 34 11
14 10 32 16 40 13 9 -3 11 0 6 8 -5 9 -4 11 4 6 6 -4 14 0 17 9 4 10 13 13 25
10 13 -4 19 -2 17 6 -2 7 3 14 10 15 6 1 17 2 23 3 5 0 7 7 3 14 -4 6 -4 9 1
5 4 -4 20 1 35 12 16 11 33 20 40 20 6 0 8 5 4 12 -4 7 -3 8 5 4 6 -4 9 -11 6
-16 -3 -5 0 -12 6 -16 8 -5 10 1 7 19 -3 15 -1 24 4 21 5 -3 15 2 22 12 10 13
15 14 21 4 5 -8 4 -11 -1 -7 -6 3 -15 -2 -21 -12 -11 -17 -9 -17 13 -7 16 7
23 17 20 28 -4 18 16 42 27 31 4 -3 7 -1 7 5 0 7 5 12 11 12 5 0 8 -4 5 -9 -3
-5 1 -12 10 -15 23 -9 31 -7 16 3 -11 7 -11 9 2 14 8 3 25 -2 38 -13 23 -18
24 -18 25 3 2 17 0 19 -7 7 -9 -13 -14 -7 -11 12 0 4 -7 5 -17 2 -14 -5 -14
-3 2 10 14 11 22 13 27 5 4 -7 9 -8 13 -1 9 14 -15 21 -36 10 -12 -5 -18 -5
-18 2 0 5 7 10 15 10 8 0 15 7 15 15 0 8 5 15 11 15 5 0 8 -4 4 -9 -3 -5 0
-13 6 -17 8 -4 9 -3 5 4 -4 7 -2 12 4 12 6 0 9 4 6 9 -3 5 2 15 12 22 16 13
16 13 2 -5 -14 -18 -13 -19 3 -13 10 4 23 7 28 7 5 0 9 8 9 18 0 14 -2 15 -10
2 -5 -8 -10 -10 -10 -5 0 18 17 36 31 33 8 -2 13 3 11 10 -1 8 2 11 8 7 5 -3
15 6 22 20 8 18 14 22 19 13 5 -8 1 -19 -12 -28 -20 -16 -20 -16 0 -16 11 0
18 2 16 4 -6 7 26 36 43 38 27 4 34 20 15 35 -17 13 -17 13 -3 -5 14 -18 13
-19 -3 -13 -13 5 -16 3 -11 -6 4 -6 4 -9 -1 -5 -4 4 -13 3 -20 -2 -8 -7 -12
-5 -12 5 0 8 4 12 8 9 4 -2 13 5 19 16 6 11 16 19 22 17 7 -1 12 4 13 11 0 6
4 11 8 10 5 -2 13 4 18 14 5 10 17 14 29 11 12 -3 20 0 20 6 0 7 -4 10 -9 6
-5 -3 -13 0 -17 6 -4 7 -3 9 3 6 5 -3 26 12 46 34 33 36 39 38 60 28 20 -11
21 -11 8 5 -13 15 -9 22 30 63 92 95 101 104 96 90 -4 -11 0 -13 16 -9 12 3
16 7 9 10 -17 5 -15 31 3 38 8 4 13 10 10 14 -3 5 -1 11 4 14 5 4 12 2 16 -4
3 -5 -3 -15 -15 -22 -11 -7 -20 -17 -20 -22 0 -5 11 1 25 14 14 13 24 29 21
36 -2 6 4 11 15 10 10 0 18 1 17 4 -1 3 5 16 12 30 12 23 12 24 -4 11 -9 -8
-15 -20 -12 -27 3 -8 0 -11 -10 -7 -16 6 -11 14 34 60 19 19 27 21 45 13 21
-11 21 -10 3 4 -24 20 -15 31 12 17 12 -6 24 -11 29 -11 4 1 -5 8 -20 16 -32
17 -31 22 3 29 17 3 20 1 16 -12 -6 -13 -4 -14 9 -3 12 10 13 15 3 21 -6 4
-15 6 -19 3 -4 -2 -7 4 -6 14 1 14 7 18 22 14 11 -3 17 -1 13 3 -9 9 29 76 49
88 7 4 13 15 13 23 0 8 4 12 10 9 6 -3 7 1 4 9 -3 9 -2 16 4 16 5 0 12 9 15
21 3 12 10 18 15 15 6 -4 8 3 5 16 -4 22 -4 22 11 4 15 -18 15 -17 11 13 -3
24 1 33 18 42 20 9 21 9 4 -4 -17 -14 -17 -15 0 -21 10 -4 14 -4 10 0 -4 4 -2
14 5 21 8 11 9 16 1 21 -8 5 -8 12 1 24 7 10 16 14 20 10 5 -4 7 0 6 8 -5 31
0 39 18 33 15 -6 15 -4 4 9 -11 14 -10 18 4 26 9 5 24 8 33 7 9 -1 10 0 4 2
-7 3 -13 10 -13 16 0 7 -5 6 -11 -3 -9 -13 -10 -13 -6 0 2 8 11 14 19 12 11
-1 14 5 13 23 -2 16 1 23 8 18 7 -4 8 0 4 11 -4 10 -3 15 3 11 9 -5 15 15 11
37 0 4 6 5 14 2 8 -4 15 -2 15 3 0 6 10 15 23 22 21 11 13 10 -28 -4 -14 -5
-16 -4 -7 3 8 5 15 20 15 34 1 14 7 25 14 25 8 0 9 -6 2 -18 -7 -14 -6 -17 5
-13 15 6 16 21 2 43 -7 10 -6 12 4 6 10 -6 12 -4 7 8 -3 9 -1 19 5 23 6 4 8 3
4 -4 -3 -6 -1 -14 6 -18 7 -4 10 -4 6 1 -4 4 -3 17 3 28 8 14 8 18 0 13 -6 -4
-11 0 -11 9 0 10 5 13 12 9 7 -5 9 0 6 14 -3 12 0 26 7 32 8 6 12 17 9 24 -3
8 2 16 11 20 9 3 13 10 10 16 -6 10 6 14 36 11 9 -1 19 4 22 12 3 7 -1 14 -9
14 -7 0 -11 -4 -8 -8 2 -4 -4 -7 -14 -6 -20 1 -19 31 1 44 6 4 7 1 2 -7 -6 -9
-4 -11 5 -5 10 6 10 11 -4 20 -15 11 -15 13 -1 19 11 4 14 2 9 -6 -5 -7 -3 -8
5 -3 9 5 9 11 3 17 -14 14 7 60 22 51 7 -4 7 -1 -1 7 -15 16 -6 40 16 40 9 0
12 3 6 8 -15 11 -14 50 2 56 10 4 11 1 3 -14 -7 -13 -7 -21 2 -26 7 -4 8 -3 4
4 -4 7 -3 12 1 12 5 0 9 9 10 20 1 11 -3 20 -8 20 -6 0 -7 5 -4 10 4 6 10 8
15 5 4 -3 14 3 21 13 12 15 12 16 -1 5 -10 -8 -21 -9 -30 -3 -13 8 -13 10 0
10 9 0 17 9 18 20 1 11 3 29 4 40 3 27 16 25 28 -2 6 -17 9 -18 9 -6 1 9 -4
20 -9 23 -6 4 -7 11 -4 17 5 8 1 9 -12 4 -16 -6 -16 -4 4 14 17 16 20 25 12
39 -5 10 -6 21 -3 25 8 8 14 32 16 68 1 14 4 25 6 23 2 -3 13 1 25 7 11 7 24
12 28 13 3 0 9 3 13 7 8 8 -13 4 -38 -7 -23 -10 -33 1 -18 19 7 8 10 20 6 26
-3 5 1 10 10 10 9 0 13 5 10 10 -4 6 -12 7 -18 4 -9 -5 -9 -3 0 6 9 10 16 10
26 2 11 -9 14 -8 14 3 0 8 -5 11 -10 8 -6 -4 -8 0 -4 10 3 9 -1 23 -9 32 -9 8
-11 15 -6 15 4 0 8 18 7 39 -1 27 2 38 11 34 13 -5 14 14 2 33 -5 7 2 10 20 8
l27 -4 -28 11 c-15 6 -24 15 -21 20 4 6 11 6 19 -1 9 -8 15 -8 20 0 4 6 1 9
-7 8 -7 -2 -12 3 -10 10 1 8 -2 11 -8 7 -15 -9 -12 4 5 22 14 14 14 17 1 32
-10 11 -12 21 -6 31 5 8 6 18 4 22 -3 4 0 8 6 8 7 0 10 -6 7 -14 -3 -8 0 -17
8 -20 16 -6 9 22 -9 39 -14 13 -18 65 -5 65 6 0 7 -4 4 -10 -4 -6 1 -7 11 -3
14 5 14 7 -4 17 -16 8 -18 15 -11 28 6 11 6 19 -1 23 -6 4 -8 11 -4 16 3 5 11
6 17 2 9 -5 9 -3 1 8 -5 8 -10 21 -9 29 1 8 -2 25 -7 37 -4 12 -3 25 2 28 5 3
7 14 5 25 -3 14 0 18 8 14 9 -5 9 -4 0 6 -10 11 -9 16 5 27 15 13 15 14 0 10
-22 -7 -30 3 -17 20 9 10 8 13 -2 13 -9 0 -10 3 -4 8 11 8 17 84 6 78 -4 -3
-7 8 -6 24 0 15 3 26 6 24 9 -5 17 27 12 44 -3 6 -8 10 -12 8 -6 -4 -11 19
-16 89 -1 17 -3 32 -4 35 -3 7 -12 80 -14 110 -1 14 -6 31 -10 38 -5 7 -3 12
4 12 8 0 8 4 -1 15 -14 17 -5 50 11 39 8 -4 8 0 0 15 -13 24 -23 28 -15 6 4
-8 1 -15 -4 -15 -6 0 -9 9 -7 20 2 11 -1 20 -6 20 -6 0 -7 5 -4 10 4 6 12 4
21 -5 20 -19 23 -19 20 3 -2 9 -8 18 -14 18 -7 1 -17 2 -23 3 -5 0 -8 5 -4 10
3 5 1 12 -4 16 -5 3 -8 14 -6 25 2 11 0 20 -4 20 -8 0 -9 7 -12 55 -1 14 -4
25 -8 25 -4 0 -7 8 -8 18 -4 51 -10 77 -19 75 -6 -1 -9 12 -8 28 1 16 -2 29
-8 29 -5 0 -7 4 -4 9 8 13 -4 42 -15 35 -5 -3 -6 1 -4 8 3 8 15 14 26 15 17 2
18 -1 9 -13 -9 -10 -10 -18 -1 -27 6 -8 8 -17 4 -20 -3 -4 0 -7 8 -7 12 0 11
-2 -1 -11 -13 -9 -12 -10 3 -5 18 6 24 -9 6 -19 -7 -5 -5 -13 6 -25 8 -9 13
-24 9 -34 -3 -9 -2 -16 3 -16 11 0 13 31 3 45 -3 6 -6 25 -5 43 1 18 0 30 -3
27 -8 -8 -34 34 -27 45 4 6 10 8 15 5 5 -3 12 -1 15 5 4 6 1 9 -7 8 -7 -2 -12
3 -10 10 2 10 -2 10 -18 2 -13 -7 -20 -7 -20 0 0 5 5 10 10 10 6 0 10 5 10 12
0 6 -9 3 -20 -7 -11 -10 -20 -13 -20 -7 0 6 10 18 23 28 15 11 16 15 5 11 -10
-4 -18 -3 -18 2 0 14 26 31 35 23 5 -4 5 -1 1 6 -4 7 -11 10 -16 7 -5 -3 -11
-1 -15 5 -4 7 -12 7 -25 0 -15 -8 -17 -7 -12 12 3 15 2 19 -7 14 -6 -4 -11 -4
-10 1 1 4 1 19 0 33 -1 18 -4 21 -10 11 -6 -9 -8 -5 -8 14 0 15 -7 31 -14 36
-8 5 -10 9 -6 9 4 0 2 10 -5 23 -18 32 -19 90 -2 83 7 -3 16 -1 18 3 3 5 -5 8
-17 7 -12 0 -22 -6 -22 -13 0 -23 -11 -21 -13 2 -1 14 3 26 8 26 6 1 14 2 19
3 5 0 13 4 17 8 8 8 -21 4 -50 -8 -15 -6 -18 -4 -13 9 3 8 0 21 -8 27 -17 14
-26 48 -14 56 11 6 43 -16 34 -24 -2 -3 -12 1 -22 9 -12 10 -10 4 6 -18 12
-18 19 -37 16 -43 -3 -6 1 -7 9 -4 21 8 20 20 0 28 -15 6 -15 8 2 27 14 15 15
20 4 17 -10 -2 -14 4 -12 17 2 11 -1 16 -5 10 -4 -5 -19 -10 -33 -10 -18 0
-24 5 -22 18 2 9 -1 17 -6 17 -5 0 -15 14 -23 31 -11 28 -10 33 5 44 11 9 14
15 6 20 -6 4 -8 15 -5 25 5 15 2 18 -14 15 -24 -4 -27 5 -9 23 9 9 9 12 0 12
-7 0 -12 -5 -12 -11 0 -5 -4 -8 -8 -5 -5 3 -9 -1 -9 -9 0 -14 10 -19 30 -16 4
0 7 -5 7 -13 0 -8 -3 -16 -7 -19 -5 -2 -2 -2 5 -1 17 5 15 -11 -3 -26 -12 -10
-15 -9 -16 4 -3 31 -4 35 -16 48 -7 6 -13 18 -13 25 0 7 -10 21 -22 33 -12 11
-18 20 -13 20 4 0 0 9 -10 20 -17 19 -17 22 -2 37 15 15 14 18 -9 36 -14 10
-28 17 -31 13 -4 -3 -1 -6 5 -6 7 0 12 -4 12 -10 0 -21 -19 -9 -32 20 -7 17
-16 30 -20 30 -5 0 -8 7 -8 15 0 8 -4 15 -10 15 -12 0 -14 26 -2 33 4 2 1 2
-6 0 -8 -1 -20 3 -28 11 -16 16 -19 30 -5 22 5 -3 12 1 15 10 4 9 11 12 18 7
17 -10 42 -14 33 -5 -4 4 -12 7 -18 7 -7 1 -11 7 -9 15 3 11 -1 10 -16 -3 -10
-9 -21 -17 -24 -17 -11 0 -48 38 -48 49 0 6 -6 11 -12 11 -7 1 -2 10 11 21 13
11 21 22 17 26 -3 4 -13 -2 -20 -13 -14 -19 -15 -19 -35 2 -22 24 -18 36 7 27
11 -3 13 -2 6 4 -6 4 -14 15 -17 23 -4 12 -6 11 -6 -2 -1 -10 -5 -18 -11 -18
-15 0 -12 16 6 34 11 11 12 16 3 16 -7 0 -33 21 -57 48 -31 32 -39 38 -26 17
10 -16 27 -36 36 -43 10 -7 16 -18 13 -23 -3 -5 1 -6 10 -3 11 5 14 2 9 -11
-6 -14 -12 -11 -39 17 -17 18 -30 36 -28 40 2 4 -5 13 -16 19 -10 7 -17 19
-14 26 4 9 0 11 -13 6 -10 -4 -15 -2 -11 3 3 6 -3 17 -14 24 -26 19 -24 33 4
25 17 -5 19 -4 7 4 -8 6 -22 8 -32 5 -9 -2 -20 1 -24 7 -5 8 -2 10 7 5 8 -4 5
0 -6 9 -11 8 -37 31 -57 50 -31 28 -35 35 -23 45 16 13 10 34 -6 24 -5 -3 -7
-10 -4 -15 9 -14 -8 -10 -30 7 l-20 16 20 -4 c22 -3 29 24 7 28 -7 1 -8 0 -2
-3 18 -9 10 -21 -11 -16 -12 4 -18 11 -15 20 4 9 -1 17 -13 20 -11 3 -22 12
-25 20 -5 12 -1 14 14 10 11 -3 23 0 27 5 3 7 1 8 -5 4 -7 -4 -12 -2 -12 4 0
8 -6 8 -20 0 -16 -9 -18 -15 -10 -30 6 -11 18 -20 28 -21 11 0 12 -2 4 -6 -7
-2 -38 20 -69 51 -31 31 -61 56 -65 56 -4 0 -8 4 -8 10 0 5 6 7 14 4 18 -7 30
12 15 22 -7 4 -9 3 -5 -4 4 -7 -2 -10 -18 -9 -23 2 -77 41 -130 93 -11 12 -31
24 -44 28 -12 4 -20 11 -17 16 3 4 -11 15 -30 24 -19 9 -37 21 -40 26 -4 6
-12 7 -18 3 -7 -4 -6 1 2 10 12 15 12 17 -3 11 -9 -3 -16 -1 -16 5 0 6 -9 11
-21 11 -11 0 -18 4 -15 9 3 5 -8 14 -24 21 -17 7 -30 20 -31 29 0 9 -3 11 -5
4 -3 -7 -12 -9 -20 -6 -7 3 -11 9 -8 14 3 5 -4 9 -16 9 -14 0 -19 4 -14 12 5
7 2 9 -9 5 -16 -6 -42 15 -31 26 3 3 -3 3 -15 0 -15 -4 -21 -1 -21 11 0 9 5
16 12 16 6 0 8 3 4 7 -4 5 -14 -1 -22 -11 -8 -11 -14 -14 -14 -8 0 7 -9 12
-20 12 -11 0 -20 4 -20 9 0 4 11 7 25 5 16 -1 29 4 35 15 6 13 5 18 -5 18 -7
0 -11 -5 -9 -12 3 -6 -5 -11 -16 -12 -11 -1 -19 3 -17 10 1 6 -7 12 -18 14
-19 3 -19 3 -1 -5 13 -6 16 -11 8 -15 -11 -8 -102 32 -102 44 0 4 5 11 10 14
6 3 10 11 10 17 0 5 -9 0 -19 -13 -19 -23 -19 -24 -40 -5 -12 11 -21 15 -21
10 0 -5 -4 -4 -8 1 -9 13 -98 55 -116 55 -7 0 -19 7 -26 15 -7 8 -16 12 -21 9
-5 -3 -9 -1 -9 3 0 5 -10 9 -22 10 -11 1 -24 6 -27 10 -3 4 -14 9 -25 11 -10
2 -30 8 -45 14 -14 6 -29 11 -33 10 -5 -1 -8 3 -8 8 0 6 -14 10 -31 10 -17 0
-28 4 -24 10 4 6 -6 10 -24 10 -16 0 -33 5 -36 11 -4 6 -13 8 -21 5 -7 -3 -16
-1 -19 4 -3 5 -15 7 -26 5 -11 -2 -22 2 -25 10 -3 7 -14 12 -25 10 -10 -2 -21
0 -24 6 -4 5 -18 9 -33 9 -31 0 -47 9 -55 30 -4 12 -6 11 -6 -3 -1 -10 -5 -16
-11 -12 -5 3 -6 13 -3 23 5 14 3 14 -9 -2 -12 -15 -19 -16 -35 -8 -11 6 -23 8
-27 5 -3 -3 -6 -2 -6 3 0 5 -12 9 -27 10 -16 0 -48 4 -73 8 -25 5 -51 9 -57 9
-7 0 -13 7 -13 16 0 10 -3 12 -8 5 -4 -5 -20 -9 -37 -8 -44 2 -47 3 -41 12 3
5 -1 9 -9 9 -8 0 -12 -4 -9 -8 6 -11 -38 -7 -54 4 -10 8 -10 13 0 26 12 14 11
14 -4 2 -10 -7 -16 -17 -13 -21 3 -4 -13 -7 -35 -6 -22 0 -40 3 -40 6 0 3 -25
5 -55 4 -33 0 -55 4 -55 10 0 6 -5 4 -10 -4 -8 -13 -10 -13 -10 0 0 10 -3 11
-11 3 -9 -9 -16 -7 -28 5 -9 10 -13 13 -8 8 12 -16 8 -22 -13 -22 -14 0 -19 5
-15 15 4 11 3 12 -10 1 -8 -7 -15 -9 -15 -4 0 5 -5 2 -10 -6 -8 -12 -10 -12
-10 -1 0 11 -3 11 -15 1 -15 -12 -20 -4 -16 23 1 8 -8 10 -10 2z m2951 -1665
c0 -5 -7 -10 -16 -10 -8 0 -12 5 -9 10 3 6 10 10 16 10 5 0 9 -4 9 -10z m330
-695 c-7 -8 -9 -19 -5 -25 3 -5 2 -10 -3 -10 -6 0 -13 7 -16 16 -7 19 12 47
26 38 5 -3 4 -11 -2 -19z m170 -879 c0 -3 -4 -8 -10 -11 -5 -3 -10 -1 -10 4 0
6 5 11 10 11 6 0 10 -2 10 -4z m-10 -600 c0 -3 -4 -8 -10 -11 -5 -3 -10 -1
-10 4 0 6 5 11 10 11 6 0 10 -2 10 -4z m-30 -240 c0 -3 -4 -8 -10 -11 -5 -3
-10 -1 -10 4 0 6 5 11 10 11 6 0 10 -2 10 -4z m-1439 -2279 c-8 -8 -14 -7 -23
2 -11 10 -9 11 6 5 15 -6 17 -4 11 6 -6 9 -4 11 4 5 9 -5 10 -10 2 -18z
m-3720 -134 c13 -15 12 -15 -8 -4 -24 12 -29 21 -14 21 5 0 15 -7 22 -17z
m3073 -224 c-3 -5 -10 -7 -15 -3 -5 3 -7 10 -3 15 3 5 10 7 15 3 5 -3 7 -10 3
-15z m-44 1 c-14 -9 -7 -14 13 -11 5 1 6 -3 2 -9 -5 -8 -11 -8 -21 1 -15 12
-10 29 9 29 7 0 6 -4 -3 -10z m-730 -207 c0 -14 -20 -39 -20 -25 0 6 -9 12
-21 12 -16 0 -20 -4 -15 -17 6 -17 5 -17 -8 0 -9 11 -16 14 -19 7 -3 -6 -5 -6
-3 1 1 7 15 14 31 16 16 3 32 6 34 9 7 7 21 5 21 -3z m-853 -38 c0 -6 -14 -10
-31 -9 -38 2 -38 2 -32 12 7 12 63 9 63 -3z m173 -29 c0 -3 -4 -8 -10 -11 -5
-3 -10 -1 -10 4 0 6 5 11 10 11 6 0 10 -2 10 -4z"/>
<path d="M3910 7196 c0 -2 7 -7 16 -10 8 -3 12 -2 9 4 -6 10 -25 14 -25 6z"/>
<path d="M4132 7190 c2 -8 -2 -14 -8 -13 -6 1 -11 -4 -11 -12 0 -7 7 -11 15
-7 11 4 13 1 7 -8 -5 -8 -4 -11 2 -7 11 7 11 43 -1 54 -4 5 -6 1 -4 -7z"/>
<path d="M4179 7198 c-5 -18 -6 -38 -1 -34 7 8 12 36 6 36 -2 0 -4 -1 -5 -2z"/>
<path d="M3336 7177 c3 -10 9 -15 12 -12 3 3 0 11 -7 18 -10 9 -11 8 -5 -6z"/>
<path d="M3955 7181 c-3 -5 -2 -12 3 -15 5 -3 9 1 9 9 0 17 -3 19 -12 6z"/>
<path d="M3226 7172 c-3 -5 1 -9 9 -9 8 0 12 4 9 9 -3 4 -7 8 -9 8 -2 0 -6 -4
-9 -8z"/>
<path d="M4036 7163 c-6 -14 -5 -15 5 -6 7 7 10 15 7 18 -3 3 -9 -2 -12 -12z"/>
<path d="M4236 7163 c-6 -14 -5 -15 5 -6 7 7 10 15 7 18 -3 3 -9 -2 -12 -12z"/>
<path d="M4264 7172 c4 -3 14 -7 22 -8 9 -1 13 0 10 4 -4 3 -14 7 -22 8 -9 1
-13 0 -10 -4z"/>
<path d="M2796 7137 c3 -10 9 -15 12 -12 3 3 0 11 -7 18 -10 9 -11 8 -5 -6z"/>
<path d="M4251 7137 c-8 -10 -7 -14 2 -14 8 0 14 6 14 14 0 7 -1 13 -2 13 -2
0 -8 -6 -14 -13z"/>
<path d="M4293 7135 c0 -7 6 -11 14 -8 7 3 13 6 13 8 0 2 -6 5 -13 8 -8 3 -14
-1 -14 -8z"/>
<path d="M4330 7136 c0 -2 7 -7 16 -10 8 -3 12 -2 9 4 -6 10 -25 14 -25 6z"/>
<path d="M4456 7123 c-6 -14 -5 -15 5 -6 7 7 10 15 7 18 -3 3 -9 -2 -12 -12z"/>
<path d="M4375 7121 c-3 -5 0 -13 6 -17 7 -4 9 -3 5 4 -3 6 2 13 11 15 16 4
16 5 1 6 -9 0 -19 -3 -23 -8z"/>
<path d="M4480 7110 c-9 -6 -10 -10 -3 -10 6 0 15 5 18 10 8 12 4 12 -15 0z"/>
<path d="M4575 7110 c-3 -5 -1 -10 4 -10 6 0 11 5 11 10 0 6 -2 10 -4 10 -3 0
-8 -4 -11 -10z"/>
<path d="M4535 7101 c-3 -5 -2 -12 3 -15 5 -3 9 1 9 9 0 17 -3 19 -12 6z"/>
<path d="M4675 7053 c0 -15 7 -28 15 -31 10 -2 11 -1 4 5 -6 4 -10 16 -8 25 1
10 -1 20 -5 23 -4 2 -7 -8 -6 -22z"/>
<path d="M2626 7048 c3 -5 10 -6 15 -3 13 9 11 12 -6 12 -8 0 -12 -4 -9 -9z"/>
<path d="M4590 7045 c0 -8 2 -15 4 -15 2 0 6 7 10 15 3 8 1 15 -4 15 -6 0 -10
-7 -10 -15z"/>
<path d="M4726 7052 c-3 -5 1 -9 9 -9 8 0 12 4 9 9 -3 4 -7 8 -9 8 -2 0 -6 -4
-9 -8z"/>
<path d="M4773 7045 c0 -8 4 -12 9 -9 5 3 6 10 3 15 -9 13 -12 11 -12 -6z"/>
<path d="M4716 7022 c-3 -5 1 -9 9 -9 8 0 12 4 9 9 -3 4 -7 8 -9 8 -2 0 -6 -4
-9 -8z"/>
<path d="M4750 7008 c0 -4 4 -8 9 -8 6 0 12 4 15 8 3 5 -1 9 -9 9 -8 0 -15 -4
-15 -9z"/>
<path d="M2475 6990 c3 -5 8 -10 11 -10 2 0 4 5 4 10 0 6 -5 10 -11 10 -5 0
-7 -4 -4 -10z"/>
<path d="M4790 6990 c8 -5 20 -10 25 -10 6 0 3 5 -5 10 -8 5 -19 10 -25 10 -5
0 -3 -5 5 -10z"/>
<path d="M4967 6989 c7 -7 15 -10 18 -7 3 3 -2 9 -12 12 -14 6 -15 5 -6 -5z"/>
<path d="M2386 6972 c-2 -4 4 -8 14 -8 10 0 16 4 14 8 -3 4 -9 8 -14 8 -5 0
-11 -4 -14 -8z"/>
<path d="M4865 6969 c-4 -6 -5 -12 -2 -15 2 -3 7 2 10 11 7 17 1 20 -8 4z"/>
<path d="M4916 6968 c3 -5 10 -6 15 -3 13 9 11 12 -6 12 -8 0 -12 -4 -9 -9z"/>
<path d="M2295 6950 c3 -5 8 -10 11 -10 2 0 4 5 4 10 0 6 -5 10 -11 10 -5 0
-7 -4 -4 -10z"/>
<path d="M4934 6948 c-4 -7 -4 -10 1 -6 4 4 14 1 22 -7 17 -18 33 -19 33 -3 0
6 -3 8 -7 5 -3 -4 -14 0 -24 9 -14 12 -18 13 -25 2z"/>
<path d="M5010 6928 c0 -11 12 -10 30 2 12 7 10 9 -8 7 -12 0 -22 -5 -22 -9z"/>
<path d="M2213 6913 c4 -3 1 -13 -6 -22 -11 -14 -10 -14 5 -2 16 12 16 31 1
31 -4 0 -3 -3 0 -7z"/>
<path d="M2255 6910 c-3 -5 -1 -10 4 -10 6 0 11 5 11 10 0 6 -2 10 -4 10 -3 0
-8 -4 -11 -10z"/>
<path d="M5135 6911 c-3 -5 -2 -12 3 -15 5 -3 9 1 9 9 0 17 -3 19 -12 6z"/>
<path d="M4990 6899 c0 -5 5 -7 10 -4 6 3 10 8 10 11 0 2 -4 4 -10 4 -5 0 -10
-5 -10 -11z"/>
<path d="M5050 6891 c0 -9 17 -18 34 -19 5 0 13 -6 18 -14 8 -10 9 -10 5 2 -2
8 -10 14 -16 12 -6 -1 -14 5 -17 13 -7 16 -24 21 -24 6z"/>
<path d="M5111 6883 c7 -12 15 -20 18 -17 3 2 -3 12 -13 22 -17 16 -18 16 -5
-5z"/>
<path d="M2134 6866 c1 -8 5 -18 8 -22 4 -3 5 1 4 10 -1 8 -5 18 -8 22 -4 3
-5 -1 -4 -10z"/>
<path d="M2170 6869 c0 -5 5 -7 10 -4 6 3 10 8 10 11 0 2 -4 4 -10 4 -5 0 -10
-5 -10 -11z"/>
<path d="M5150 6859 c-22 -18 -22 -19 -3 -10 12 6 25 16 28 21 9 15 3 12 -25
-11z"/>
<path d="M2096 6852 c-3 -5 1 -9 9 -9 8 0 12 4 9 9 -3 4 -7 8 -9 8 -2 0 -6 -4
-9 -8z"/>
<path d="M5230 6850 c0 -5 5 -10 10 -10 6 0 10 5 10 10 0 6 -4 10 -10 10 -5 0
-10 -4 -10 -10z"/>
<path d="M5175 6840 c6 -10 4 -12 -8 -7 -10 3 -17 2 -17 -3 0 -13 27 -13 35
-1 3 5 0 13 -6 17 -8 5 -9 3 -4 -6z"/>
<path d="M5290 6833 c0 -6 8 -17 18 -24 16 -13 16 -13 2 6 -8 11 -16 22 -17
24 -2 2 -3 0 -3 -6z"/>
<path d="M5220 6815 c-8 -10 -9 -15 -1 -15 6 0 11 5 11 11 0 8 5 7 16 -2 14
-12 14 -14 -3 -20 -16 -7 -16 -8 -1 -8 25 -1 30 14 9 33 -16 15 -19 15 -31 1z"/>
<path d="M5380 6731 c0 -9 30 -24 36 -18 2 1 -6 8 -16 15 -11 7 -20 8 -20 3z"/>
<path d="M5430 6729 c0 -5 5 -7 10 -4 6 3 10 8 10 11 0 2 -4 4 -10 4 -5 0 -10
-5 -10 -11z"/>
<path d="M5460 6701 c0 -7 -4 -9 -10 -6 -5 3 -10 1 -10 -4 0 -6 4 -11 9 -11
13 0 25 20 17 27 -3 4 -6 1 -6 -6z"/>
<path d="M5530 6686 c7 -7 13 -7 20 0 6 6 3 10 -10 10 -13 0 -16 -4 -10 -10z"/>
<path d="M5470 6670 c0 -5 5 -10 10 -10 6 0 10 5 10 10 0 6 -4 10 -10 10 -5 0
-10 -4 -10 -10z"/>
<path d="M5500 6656 c0 -2 7 -6 15 -10 8 -3 15 -1 15 4 0 6 -7 10 -15 10 -8 0
-15 -2 -15 -4z"/>
<path d="M5557 6644 c-23 -12 -30 -34 -11 -34 3 0 2 5 -2 12 -5 8 -2 9 12 4
10 -4 15 -4 11 0 -4 4 1 13 11 20 23 18 14 17 -21 -2z"/>
<path d="M5572 6614 c-7 -8 -8 -14 -3 -14 10 0 25 19 20 25 -2 1 -10 -3 -17
-11z"/>
<path d="M5590 6590 c0 -5 5 -10 10 -10 6 0 10 5 10 10 0 6 -4 10 -10 10 -5 0
-10 -4 -10 -10z"/>
<path d="M5630 6580 c-9 -6 -10 -10 -3 -10 6 0 15 5 18 10 8 12 4 12 -15 0z"/>
<path d="M1646 6568 c3 -5 10 -6 15 -3 13 9 11 12 -6 12 -8 0 -12 -4 -9 -9z"/>
<path d="M5719 6578 c-5 -18 -6 -38 -1 -34 7 8 12 36 6 36 -2 0 -4 -1 -5 -2z"/>
<path d="M5620 6554 c0 -1 8 -8 17 -15 14 -12 16 -12 8 0 -6 11 -4 13 9 8 9
-4 15 -3 11 2 -4 8 -45 12 -45 5z"/>
<path d="M5689 6522 c5 -10 20 -18 33 -19 17 -2 19 0 8 7 -8 5 -18 6 -22 4 -4
-3 -8 2 -8 10 0 9 -5 16 -10 16 -7 0 -7 -6 -1 -18z"/>
<path d="M5754 6516 c1 -8 5 -18 8 -22 4 -3 5 1 4 10 -1 8 -5 18 -8 22 -4 3
-5 -1 -4 -10z"/>
<path d="M5777 6485 c-8 -19 12 -30 26 -16 9 9 8 11 -6 5 -13 -5 -16 -2 -11
10 3 9 4 16 1 16 -3 0 -7 -7 -10 -15z"/>
<path d="M5750 6461 c0 -5 5 -13 10 -16 6 -3 10 -2 10 4 0 5 -4 13 -10 16 -5
3 -10 2 -10 -4z"/>
<path d="M5798 6432 c13 -4 23 -11 23 -17 0 -5 12 -11 27 -12 19 -2 23 0 13 6
-8 5 -20 7 -28 4 -8 -3 -13 0 -11 8 2 8 -7 14 -22 16 -24 2 -24 2 -2 -5z"/>
<path d="M5830 6386 c0 -2 7 -9 15 -16 13 -11 14 -10 9 4 -5 14 -24 23 -24 12z"/>
<path d="M5916 6369 c3 -5 9 -7 14 -4 4 3 11 0 13 -5 3 -6 4 -5 3 1 -1 7 -10
13 -19 15 -9 1 -15 -2 -11 -7z"/>
<path d="M5909 6333 c-13 -16 -12 -17 4 -4 9 7 17 15 17 17 0 8 -8 3 -21 -13z"/>
<path d="M5934 6328 c-3 -4 -4 -8 -2 -9 25 -6 35 -5 35 5 0 14 -25 17 -33 4z"/>
<path d="M5920 6306 c0 -3 9 -10 20 -16 15 -8 25 -8 38 0 16 11 16 11 -1 6
-10 -3 -27 -1 -38 4 -10 6 -19 8 -19 6z"/>
<path d="M6030 6250 c0 -5 7 -7 15 -4 8 4 15 8 15 10 0 2 -7 4 -15 4 -8 0 -15
-4 -15 -10z"/>
<path d="M6070 6233 c0 -5 5 -15 10 -23 7 -12 9 -10 7 8 -1 19 -17 33 -17 15z"/>
<path d="M6115 6170 c3 -5 8 -10 11 -10 2 0 4 5 4 10 0 6 -5 10 -11 10 -5 0
-7 -4 -4 -10z"/>
<path d="M6096 6152 c-3 -5 3 -16 14 -24 15 -14 19 -14 24 -2 3 7 2 13 -2 13
-20 -3 -33 2 -27 11 3 6 4 10 1 10 -3 0 -7 -4 -10 -8z"/>
<path d="M6140 6114 c0 -6 7 -17 15 -24 13 -11 18 -11 28 0 10 10 9 12 -5 7
-11 -4 -21 0 -27 11 -6 9 -11 12 -11 6z"/>
<path d="M6202 6088 c-15 -15 -15 -28 0 -28 6 0 8 3 5 7 -4 3 -2 12 4 20 14
16 7 17 -9 1z"/>
<path d="M6232 6061 c-11 -7 -11 -9 0 -14 9 -3 15 1 15 9 0 8 -1 14 -1 14 -1
0 -7 -4 -14 -9z"/>
<path d="M1027 6029 c7 -7 15 -10 18 -7 3 3 -2 9 -12 12 -14 6 -15 5 -6 -5z"/>
<path d="M6232 6021 c-11 -7 -10 -9 3 -14 9 -4 14 -3 10 2 -3 5 1 12 7 14 7 3
9 6 3 6 -5 0 -16 -3 -23 -8z"/>
<path d="M6276 6009 c2 -4 -1 -9 -8 -11 -7 -3 -5 -7 6 -11 10 -4 15 -3 11 3
-3 6 -1 10 4 10 6 0 11 4 11 8 0 5 -7 9 -15 9 -8 0 -12 -4 -9 -8z"/>
<path d="M6301 5978 c-1 -20 14 -24 25 -6 4 6 3 8 -4 4 -5 -3 -13 0 -15 6 -3
8 -6 6 -6 -4z"/>
<path d="M6336 5945 c7 -18 6 -19 -12 -5 -18 14 -18 14 -5 -3 10 -12 17 -15
25 -7 7 7 6 14 -3 23 -10 10 -11 8 -5 -8z"/>
<path d="M6357 5925 c-4 -8 -3 -16 1 -19 4 -3 9 4 9 15 2 23 -3 25 -10 4z"/>
<path d="M6386 5867 c3 -10 9 -15 12 -12 3 3 0 11 -7 18 -10 9 -11 8 -5 -6z"/>
<path d="M6406 5842 c-3 -5 1 -9 9 -9 8 0 12 4 9 9 -3 4 -7 8 -9 8 -2 0 -6 -4
-9 -8z"/>
<path d="M6380 5809 c0 -5 5 -7 10 -4 6 3 10 8 10 11 0 2 -4 4 -10 4 -5 0 -10
-5 -10 -11z"/>
<path d="M6428 5787 c-12 -9 -14 -17 -7 -30 14 -23 24 -21 37 7 16 35 1 46
-30 23z m22 -18 c-7 -11 -14 -18 -17 -15 -8 8 5 36 17 36 7 0 7 -6 0 -21z"/>
<path d="M6465 5744 c-9 -15 -12 -23 -6 -20 11 7 35 46 28 46 -3 0 -12 -12
-22 -26z"/>
<path d="M6475 5690 c-3 -5 -1 -10 4 -10 6 0 11 5 11 10 0 6 -2 10 -4 10 -3 0
-8 -4 -11 -10z"/>
<path d="M6508 5683 c7 -3 16 -2 19 1 4 3 -2 6 -13 5 -11 0 -14 -3 -6 -6z"/>
<path d="M6524 5655 c-4 -8 -11 -12 -18 -8 -6 3 -8 2 -3 -2 4 -5 18 -10 30
-11 12 -2 16 0 10 2 -7 3 -13 10 -13 15 0 6 5 7 12 3 7 -4 8 -3 4 4 -10 16
-15 15 -22 -3z"/>
<path d="M6535 5600 c8 -9 12 -20 8 -23 -3 -4 -4 -7 0 -7 10 0 37 31 37 43 0
7 -5 4 -11 -6 -6 -9 -15 -15 -21 -11 -6 4 -5 9 3 15 10 6 7 8 -8 6 -20 -1 -21
-3 -8 -17z"/>
<path d="M6581 5583 c-1 -17 16 -25 25 -12 4 7 3 9 -4 5 -5 -3 -13 0 -15 6 -4
9 -6 10 -6 1z"/>
<path d="M6621 5566 c-9 -11 -9 -16 1 -22 7 -4 10 -4 6 1 -4 4 -3 14 3 22 6 7
9 13 6 13 -2 0 -10 -6 -16 -14z"/>
<path d="M6601 5506 c-9 -11 -9 -16 1 -22 7 -4 10 -4 6 1 -4 4 0 14 10 21 9 7
12 14 6 14 -6 0 -17 -6 -23 -14z"/>
<path d="M6650 5513 c0 -6 8 -17 18 -24 16 -13 16 -13 2 6 -8 11 -16 22 -17
24 -2 2 -3 0 -3 -6z"/>
<path d="M6622 5475 c-10 -21 -9 -23 9 -20 15 3 19 0 15 -10 -3 -9 0 -12 10
-8 27 10 13 29 -18 24 -13 -2 -9 17 4 21 8 3 9 6 1 11 -5 3 -15 -4 -21 -18z"/>
<path d="M6705 5320 c-3 -5 1 -20 9 -31 15 -22 15 -22 13 -1 0 11 -5 18 -9 16
-4 -3 -8 -1 -8 5 0 5 8 12 18 14 15 4 15 5 0 6 -9 0 -20 -3 -23 -9z"/>
<path d="M6746 5264 c1 -6 -3 -18 -9 -25 -10 -11 -9 -11 4 -1 9 6 18 10 21 7
2 -3 5 2 5 10 0 8 -4 12 -8 9 -4 -2 -9 -1 -12 3 -2 5 -3 3 -1 -3z"/>
<path d="M6835 5071 c3 -5 -1 -12 -7 -14 -10 -4 -10 -6 -1 -6 7 -1 10 -8 7
-16 -4 -8 -1 -15 6 -15 6 0 9 -4 6 -9 -4 -5 2 -8 11 -7 20 3 28 21 14 31 -7 4
-8 -1 -4 -12 6 -16 5 -16 -10 -5 -17 14 -18 32 -4 43 5 3 1 9 -8 12 -9 4 -14
3 -10 -2z"/>
<path d="M6860 4970 c12 -23 30 -35 30 -21 0 6 -6 11 -12 11 -10 0 -10 2 0 9
11 6 9 10 -7 14 -18 4 -19 2 -11 -13z"/>
<path d="M6920 4925 c-9 -11 -16 -12 -25 -5 -8 7 -12 5 -12 -5 0 -8 4 -12 9
-9 4 3 8 -3 9 -13 0 -14 2 -15 6 -3 3 8 12 23 21 33 8 9 13 17 10 17 -3 0 -11
-7 -18 -15z"/>
<path d="M6998 4563 c7 -3 16 -2 19 1 4 3 -2 6 -13 5 -11 0 -14 -3 -6 -6z"/>
<path d="M6998 4543 c10 -4 10 -8 0 -21 -11 -13 -11 -14 1 -7 11 6 13 4 8 -9
-5 -11 -3 -15 5 -10 8 5 9 2 5 -10 -4 -10 -2 -26 3 -37 8 -14 7 -19 -1 -19 -8
0 -8 -4 1 -15 7 -8 18 -15 24 -15 8 0 8 2 0 8 -11 7 -13 15 -16 77 -1 19 -6
35 -11 35 -5 0 -5 6 1 13 8 10 6 13 -11 14 -12 0 -16 -1 -9 -4z"/>
<path d="M7040 4291 c0 -5 4 -12 8 -15 5 -3 8 -23 7 -45 -1 -22 3 -37 8 -34 5
3 6 -4 2 -16 -4 -13 -2 -21 5 -21 6 0 9 -4 6 -8 -2 -4 0 -14 5 -22 7 -12 8
-11 6 5 -1 11 -6 26 -10 33 -8 12 -2 16 18 13 6 -1 1 6 -11 16 -13 11 -20 29
-19 48 1 17 -5 36 -12 43 -7 7 -13 9 -13 3z"/>
<path d="M7135 4110 c-3 -5 -1 -10 4 -10 6 0 11 5 11 10 0 6 -2 10 -4 10 -3 0
-8 -4 -11 -10z"/>
<path d="M7079 4088 c-7 -24 -7 -48 -1 -48 17 0 21 14 9 28 -10 13 -9 15 6 9
11 -4 16 -3 12 3 -5 9 -24 14 -26 8z"/>
<path d="M7101 4031 c-20 -13 -23 -41 -4 -34 12 5 12 7 1 14 -10 7 -10 9 2 10
8 1 19 1 23 0 5 -1 6 3 2 9 -7 12 -6 12 -24 1z"/>
<path d="M7149 4013 c-13 -16 -12 -17 4 -4 16 13 21 21 13 21 -2 0 -10 -8 -17
-17z"/>
<path d="M7126 3952 c-3 -5 1 -9 9 -9 8 0 12 4 9 9 -3 4 -7 8 -9 8 -2 0 -6 -4
-9 -8z"/>
<path d="M7080 3895 c0 -7 30 -13 34 -7 3 4 -4 9 -15 9 -10 1 -19 0 -19 -2z"/>
<path d="M7099 3868 c-4 -12 -5 -57 0 -53 6 6 10 55 4 55 -1 0 -3 -1 -4 -2z"/>
<path d="M7159 3858 c-5 -18 -6 -38 -1 -34 7 8 12 36 6 36 -2 0 -4 -1 -5 -2z"/>
<path d="M7093 3793 c4 -3 1 -13 -6 -22 -11 -14 -10 -14 6 -2 20 15 22 31 5
31 -6 0 -8 -3 -5 -7z"/>
<path d="M7110 3729 c0 -5 5 -7 10 -4 6 3 10 8 10 11 0 2 -4 4 -10 4 -5 0 -10
-5 -10 -11z"/>
<path d="M7085 3671 c-3 -5 0 -13 6 -17 8 -5 9 -3 4 6 -6 10 -4 12 9 7 10 -4
15 -3 11 3 -8 13 -22 13 -30 1z"/>
<path d="M7093 3625 c0 -8 4 -12 9 -9 5 3 6 10 3 15 -9 13 -12 11 -12 -6z"/>
<path d="M7120 3610 c-9 -6 -10 -10 -3 -10 6 0 15 5 18 10 8 12 4 12 -15 0z"/>
<path d="M7155 3599 c-4 -6 -5 -12 -2 -15 2 -3 7 2 10 11 7 17 1 20 -8 4z"/>
<path d="M7087 3559 c7 -7 15 -10 18 -7 3 3 -2 9 -12 12 -14 6 -15 5 -6 -5z"/>
<path d="M7090 3531 c0 -6 4 -13 10 -16 6 -3 7 1 4 9 -7 18 -14 21 -14 7z"/>
<path d="M7114 3532 c4 -3 14 -7 22 -8 9 -1 13 0 10 4 -4 3 -14 7 -22 8 -9 1
-13 0 -10 -4z"/>
<path d="M7126 3488 c3 -5 10 -6 15 -3 13 9 11 12 -6 12 -8 0 -12 -4 -9 -9z"/>
<path d="M7080 3467 c0 -2 6 -10 14 -16 11 -9 16 -9 22 1 4 7 4 10 -1 6 -4 -4
-14 -3 -22 3 -7 6 -13 9 -13 6z"/>
<path d="M7106 3368 c3 -4 9 -8 15 -8 5 0 9 4 9 8 0 5 -7 9 -15 9 -8 0 -12 -4
-9 -9z"/>
<path d="M7093 3325 c0 -8 4 -12 9 -9 5 3 6 10 3 15 -9 13 -12 11 -12 -6z"/>
<path d="M7140 3250 c-9 -6 -10 -10 -3 -10 6 0 15 5 18 10 8 12 4 12 -15 0z"/>
<path d="M7059 3208 c-6 -12 -5 -46 2 -43 4 3 7 14 6 25 -1 18 -5 25 -8 18z"/>
<path d="M7071 3157 c-8 -10 -7 -14 2 -14 8 0 14 6 14 14 0 7 -1 13 -2 13 -2
0 -8 -6 -14 -13z"/>
<path d="M7056 3043 c-6 -14 -5 -15 5 -6 7 7 10 15 7 18 -3 3 -9 -2 -12 -12z"/>
<path d="M7094 3046 c1 -8 5 -18 8 -22 4 -3 5 1 4 10 -1 8 -5 18 -8 22 -4 3
-5 -1 -4 -10z"/>
<path d="M7084 2968 l-19 -23 23 19 c12 11 22 21 22 23 0 8 -8 2 -26 -19z"/>
<path d="M7011 2957 c2 -1 13 -9 24 -17 19 -14 19 -14 6 3 -7 9 -18 17 -24 17
-6 0 -8 -1 -6 -3z"/>
<path d="M6995 2890 c-2 -3 5 -7 16 -7 10 -1 19 2 19 6 0 9 -29 10 -35 1z"/>
<path d="M7014 2856 c1 -8 5 -18 8 -22 4 -3 5 1 4 10 -1 8 -5 18 -8 22 -4 3
-5 -1 -4 -10z"/>
<path d="M7000 2815 c0 -2 6 -8 13 -14 10 -8 14 -7 14 2 0 8 -6 14 -14 14 -7
0 -13 -1 -13 -2z"/>
<path d="M6966 2752 c-3 -4 4 -9 15 -9 23 -2 25 3 4 10 -8 4 -16 3 -19 -1z"/>
<path d="M6975 2691 c-3 -5 -2 -12 3 -15 5 -3 9 1 9 9 0 17 -3 19 -12 6z"/>
<path d="M7006 2672 c-3 -5 1 -9 9 -9 8 0 12 4 9 9 -3 4 -7 8 -9 8 -2 0 -6 -4
-9 -8z"/>
<path d="M6940 2596 c0 -7 40 -14 44 -7 3 4 -6 8 -20 9 -13 1 -24 0 -24 -2z"/>
<path d="M6931 2564 c0 -11 3 -14 6 -6 3 7 2 16 -1 19 -3 4 -6 -2 -5 -13z"/>
<path d="M6896 2528 c3 -5 10 -6 15 -3 13 9 11 12 -6 12 -8 0 -12 -4 -9 -9z"/>
<path d="M6825 2371 c-6 -11 9 -23 19 -14 9 9 7 23 -3 23 -6 0 -12 -4 -16 -9z"/>
<path d="M6845 2330 c-10 -11 -14 -20 -10 -20 4 0 0 -9 -10 -20 -17 -18 -17
-20 -2 -14 15 5 21 17 15 28 -2 2 6 13 16 25 11 12 17 21 14 21 -3 0 -13 -9
-23 -20z"/>
<path d="M6805 2330 c-3 -5 -2 -10 4 -10 5 0 13 5 16 10 3 6 2 10 -4 10 -5 0
-13 -4 -16 -10z"/>
<path d="M6874 2318 l-19 -23 23 19 c21 18 27 26 19 26 -2 0 -12 -10 -23 -22z"/>
<path d="M6813 2245 c0 -8 4 -12 9 -9 5 3 6 10 3 15 -9 13 -12 11 -12 -6z"/>
<path d="M6840 2230 c-9 -6 -10 -10 -3 -10 6 0 15 5 18 10 8 12 4 12 -15 0z"/>
<path d="M6784 2212 c4 -3 14 -7 22 -8 9 -1 13 0 10 4 -4 3 -14 7 -22 8 -9 1
-13 0 -10 -4z"/>
<path d="M6734 2088 c-4 -5 -3 -12 0 -15 3 -4 6 -1 6 7 0 9 3 10 13 1 10 -8
14 -7 14 2 0 15 -25 18 -33 5z"/>
<path d="M6733 2043 c0 -9 4 -10 14 -2 7 6 13 12 13 14 0 1 -6 2 -13 2 -8 0
-14 -6 -14 -14z"/>
<path d="M6776 2052 c-3 -5 1 -9 9 -9 8 0 12 4 9 9 -3 4 -7 8 -9 8 -2 0 -6 -4
-9 -8z"/>
<path d="M6695 1980 c-4 -6 -12 -7 -18 -4 -7 4 -9 4 -5 -1 4 -4 3 -13 -2 -20
-7 -8 -5 -12 5 -12 7 0 13 5 12 11 -1 6 3 10 9 9 6 -1 11 5 11 13 0 17 -4 18
-12 4z"/>
<path d="M6631 1917 c-13 -21 -12 -21 5 -5 10 10 16 20 13 22 -3 3 -11 -5 -18
-17z"/>
<path d="M6686 1912 c-3 -5 1 -9 9 -9 8 0 12 4 9 9 -3 4 -7 8 -9 8 -2 0 -6 -4
-9 -8z"/>
<path d="M6655 1901 c-3 -5 -2 -12 3 -15 5 -3 9 1 9 9 0 17 -3 19 -12 6z"/>
<path d="M6590 1896 c0 -2 7 -7 16 -10 8 -3 12 -2 9 4 -6 10 -25 14 -25 6z"/>
<path d="M6627 1877 c-3 -8 1 -14 8 -14 7 0 11 6 8 14 -3 7 -6 13 -8 13 -2 0
-5 -6 -8 -13z"/>
<path d="M6576 1808 c3 -5 10 -6 15 -3 13 9 11 12 -6 12 -8 0 -12 -4 -9 -9z"/>
<path d="M6553 1723 c0 -9 4 -10 14 -2 7 6 13 12 13 14 0 1 -6 2 -13 2 -8 0
-14 -6 -14 -14z"/>
<path d="M6493 1687 c-2 -16 0 -18 6 -8 5 7 13 11 19 7 6 -3 14 -1 18 6 4 7 4
10 -1 6 -4 -4 -15 -3 -24 2 -13 7 -17 4 -18 -13z"/>
<path d="M6560 1690 c-9 -6 -10 -10 -3 -10 6 0 15 5 18 10 8 12 4 12 -15 0z"/>
<path d="M6430 1605 c0 -8 4 -15 8 -15 5 0 9 7 9 15 0 8 -4 15 -9 15 -4 0 -8
-7 -8 -15z"/>
<path d="M875 1530 c3 -5 8 -10 11 -10 2 0 4 5 4 10 0 6 -5 10 -11 10 -5 0 -7
-4 -4 -10z"/>
<path d="M914 1526 c1 -8 5 -18 8 -22 4 -3 5 1 4 10 -1 8 -5 18 -8 22 -4 3 -5
-1 -4 -10z"/>
<path d="M6410 1509 c0 -5 5 -7 10 -4 6 3 10 8 10 11 0 2 -4 4 -10 4 -5 0 -10
-5 -10 -11z"/>
<path d="M6305 1490 c-3 -5 -1 -10 4 -10 6 0 11 5 11 10 0 6 -2 10 -4 10 -3 0
-8 -4 -11 -10z"/>
<path d="M6340 1450 c-8 -5 -10 -10 -5 -10 6 0 17 5 25 10 8 5 11 10 5 10 -5
0 -17 -5 -25 -10z"/>
<path d="M1015 1390 c3 -5 8 -10 11 -10 2 0 4 5 4 10 0 6 -5 10 -11 10 -5 0
-7 -4 -4 -10z"/>
<path d="M6253 1386 c-3 -5 -1 -6 5 -2 6 3 12 -1 14 -9 2 -13 5 -13 14 3 10
15 8 18 -8 18 -11 0 -22 -5 -25 -10z"/>
<path d="M6313 1383 c0 -9 4 -10 14 -2 7 6 13 12 13 14 0 1 -6 2 -13 2 -8 0
-14 -6 -14 -14z"/>
<path d="M6234 1361 c4 -5 0 -11 -6 -14 -7 -3 -3 -4 9 -4 17 1 19 4 11 14 -12
15 -22 18 -14 4z"/>
<path d="M1055 1350 c3 -5 8 -10 11 -10 2 0 4 5 4 10 0 6 -5 10 -11 10 -5 0
-7 -4 -4 -10z"/>
<path d="M6108 1272 c-58 -58 -67 -72 -47 -72 5 0 8 3 6 8 -7 10 19 32 29 24
4 -4 4 -2 0 5 -4 7 5 18 21 28 16 9 33 27 40 41 6 13 10 24 10 24 -1 0 -28
-26 -59 -58z"/>
<path d="M1090 1315 c0 -5 5 -17 10 -25 5 -8 10 -10 10 -5 0 6 -5 17 -10 25
-5 8 -10 11 -10 5z"/>
<path d="M6175 1310 c-4 -6 1 -7 12 -3 15 5 16 3 6 -8 -7 -7 -13 -17 -13 -23
0 -5 6 -1 14 9 14 20 12 35 -4 35 -5 0 -12 -4 -15 -10z"/>
<path d="M6157 1259 c7 -7 15 -10 18 -7 3 3 -2 9 -12 12 -14 6 -15 5 -6 -5z"/>
<path d="M6201 1246 c-9 -11 -9 -16 1 -22 7 -4 10 -4 6 1 -4 4 -3 14 3 22 6 7
9 13 6 13 -2 0 -10 -6 -16 -14z"/>
<path d="M6150 1236 c0 -2 7 -7 16 -10 8 -3 12 -2 9 4 -6 10 -25 14 -25 6z"/>
<path d="M6081 1202 c-7 -14 -6 -19 4 -19 7 0 11 7 7 15 -4 11 -1 13 8 7 9 -5
11 -4 6 3 -10 16 -14 15 -25 -6z"/>
<path d="M6116 1192 c-3 -5 1 -9 9 -9 8 0 12 4 9 9 -3 4 -7 8 -9 8 -2 0 -6 -4
-9 -8z"/>
<path d="M6170 1191 c0 -6 4 -13 10 -16 6 -3 7 1 4 9 -7 18 -14 21 -14 7z"/>
<path d="M5990 1155 c-19 -19 -29 -35 -22 -35 7 0 12 5 12 10 0 6 5 10 11 10
5 0 8 -4 5 -8 -3 -5 1 -9 9 -9 11 0 12 4 4 13 -6 8 -7 14 0 18 5 4 14 -1 19
-10 6 -10 12 -12 16 -6 3 5 -1 12 -9 16 -8 3 -12 12 -9 21 9 22 3 19 -36 -20z"/>
<path d="M1230 1170 c0 -5 5 -10 11 -10 5 0 7 5 4 10 -3 6 -8 10 -11 10 -2 0
-4 -4 -4 -10z"/>
<path d="M6066 1109 c4 -8 30 -6 38 2 3 3 -5 5 -19 5 -13 0 -22 -3 -19 -7z"/>
<path d="M1247 1089 c7 -7 15 -10 18 -7 3 3 -2 9 -12 12 -14 6 -15 5 -6 -5z"/>
<path d="M5916 1084 c-3 -8 -9 -13 -14 -10 -4 2 -9 -4 -9 -15 -1 -10 3 -19 8
-19 6 0 7 5 4 10 -5 9 7 14 26 12 4 -1 5 8 2 18 -6 24 -9 25 -17 4z"/>
<path d="M5999 1088 c-5 -18 -6 -38 -1 -34 7 8 12 36 6 36 -2 0 -4 -1 -5 -2z"/>
<path d="M1330 1075 c0 -5 5 -17 10 -25 5 -8 10 -10 10 -5 0 6 -5 17 -10 25
-5 8 -10 11 -10 5z"/>
<path d="M5960 1070 c-9 -6 -10 -10 -3 -10 6 0 15 5 18 10 8 12 4 12 -15 0z"/>
<path d="M6025 1070 c-3 -6 1 -7 9 -4 18 7 21 14 7 14 -6 0 -13 -4 -16 -10z"/>
<path d="M6065 1050 c-3 -6 1 -7 9 -4 18 7 21 14 7 14 -6 0 -13 -4 -16 -10z"/>
<path d="M5919 1038 c-7 -23 -4 -35 7 -35 9 0 11 4 4 12 -5 7 -7 15 -3 18 3 4
3 7 0 7 -4 0 -7 -1 -8 -2z"/>
<path d="M5948 1033 c7 -3 16 -2 19 1 4 3 -2 6 -13 5 -11 0 -14 -3 -6 -6z"/>
<path d="M5826 953 c-6 -14 -5 -15 5 -6 7 7 10 15 7 18 -3 3 -9 -2 -12 -12z"/>
<path d="M5765 951 c-3 -6 -11 -9 -16 -6 -5 3 -6 -1 -3 -9 3 -9 10 -16 16 -16
5 0 7 4 4 9 -4 5 0 11 6 14 7 2 10 7 7 11 -4 4 -10 2 -14 -3z"/>
<path d="M5715 890 c-3 -5 -1 -10 4 -10 6 0 11 5 11 10 0 6 -2 10 -4 10 -3 0
-8 -4 -11 -10z"/>
<path d="M5795 891 c-3 -5 -2 -12 3 -15 5 -3 9 1 9 9 0 17 -3 19 -12 6z"/>
<path d="M1560 870 c-9 -6 -10 -10 -3 -10 6 0 15 5 18 10 8 12 4 12 -15 0z"/>
<path d="M1473 855 c0 -8 4 -12 9 -9 5 3 6 10 3 15 -9 13 -12 11 -12 -6z"/>
<path d="M5796 848 c3 -5 10 -6 15 -3 13 9 11 12 -6 12 -8 0 -12 -4 -9 -9z"/>
<path d="M1633 825 c0 -8 4 -12 9 -9 5 3 6 10 3 15 -9 13 -12 11 -12 -6z"/>
<path d="M5535 800 c-3 -5 0 -12 6 -16 6 -3 15 0 20 7 7 12 9 11 10 -1 1 -8 1
-19 0 -23 -1 -5 3 -6 9 -2 14 9 -3 38 -24 41 -9 1 -18 -2 -21 -6z"/>
<path d="M1656 792 c-3 -4 4 -9 15 -9 23 -2 25 3 4 10 -8 4 -16 3 -19 -1z"/>
<path d="M5629 787 c6 -8 7 -18 3 -22 -4 -5 -1 -5 6 -1 10 6 10 11 1 22 -6 8
-14 14 -16 14 -3 0 0 -6 6 -13z"/>
<path d="M5735 791 c-3 -5 -2 -12 3 -15 5 -3 9 1 9 9 0 17 -3 19 -12 6z"/>
<path d="M1693 755 c0 -8 4 -12 9 -9 5 3 6 10 3 15 -9 13 -12 11 -12 -6z"/>
<path d="M5547 757 c-3 -8 1 -14 8 -14 7 0 11 6 8 14 -3 7 -6 13 -8 13 -2 0
-5 -6 -8 -13z"/>
<path d="M1776 751 c-4 -5 -2 -12 3 -15 5 -4 12 -2 15 3 4 5 2 12 -3 15 -5 4
-12 2 -15 -3z"/>
<path d="M5504 734 c-18 -14 -18 -15 4 -4 12 6 22 13 22 15 0 8 -5 6 -26 -11z"/>
<path d="M5579 738 c-5 -18 -6 -38 -1 -34 7 8 12 36 6 36 -2 0 -4 -1 -5 -2z"/>
<path d="M1799 728 c-6 -20 -6 -39 0 -42 4 -3 7 6 7 20 0 20 -4 32 -7 22z"/>
<path d="M5389 701 c-24 -16 -46 -28 -49 -26 -3 2 -6 -6 -7 -18 0 -12 1 -16 4
-9 3 6 9 12 14 12 6 0 8 -4 5 -8 -3 -5 1 -9 9 -9 9 0 11 4 6 11 -10 13 13 39
25 28 4 -4 3 -1 -1 7 -6 11 -4 13 8 8 9 -3 19 -2 23 4 3 6 12 8 20 5 8 -3 11
0 7 10 -7 20 -14 18 -64 -15z"/>
<path d="M5616 708 c3 -5 10 -6 15 -3 13 9 11 12 -6 12 -8 0 -12 -4 -9 -9z"/>
<path d="M5534 685 c0 -13 3 -22 7 -19 8 4 6 30 -2 38 -3 3 -5 -5 -5 -19z"/>
<path d="M5466 692 c-3 -5 1 -9 9 -9 8 0 15 4 15 9 0 4 -4 8 -9 8 -6 0 -12 -4
-15 -8z"/>
<path d="M1870 675 c0 -5 5 -17 10 -25 5 -8 10 -10 10 -5 0 6 -5 17 -10 25 -5
8 -10 11 -10 5z"/>
<path d="M5401 671 c-8 -5 -9 -11 -3 -15 5 -3 12 1 16 9 6 17 6 18 -13 6z"/>
<path d="M1786 652 c-3 -5 1 -9 9 -9 8 0 12 4 9 9 -3 4 -7 8 -9 8 -2 0 -6 -4
-9 -8z"/>
<path d="M1907 649 c7 -7 15 -10 18 -7 3 3 -2 9 -12 12 -14 6 -15 5 -6 -5z"/>
<path d="M5284 639 c-10 -11 -23 -18 -29 -15 -7 2 -31 -11 -55 -30 -23 -18
-47 -31 -52 -28 -5 3 -18 -2 -28 -11 -10 -9 -23 -14 -28 -11 -5 3 -16 -2 -23
-11 -13 -15 -11 -16 16 -9 16 4 32 11 35 15 3 3 15 6 27 5 13 -1 20 3 16 9 -4
6 0 8 10 4 10 -4 16 -2 14 5 -1 6 9 15 23 19 14 4 18 8 10 9 -8 1 -2 6 14 10
16 5 34 6 39 3 6 -3 7 -1 3 5 -4 7 -3 12 1 12 17 0 46 27 36 33 -6 4 -19 -3
-29 -14z"/>
<path d="M5320 621 c0 -5 -3 -16 -6 -25 -3 -9 -2 -16 3 -16 5 0 10 11 11 25 1
14 0 25 -3 25 -3 0 -5 -4 -5 -9z"/>
<path d="M1886 608 c3 -5 10 -6 15 -3 13 9 11 12 -6 12 -8 0 -12 -4 -9 -9z"/>
<path d="M5393 605 c0 -8 4 -12 9 -9 4 3 8 9 8 15 0 5 -4 9 -8 9 -5 0 -9 -7
-9 -15z"/>
<path d="M2070 579 c0 -5 -4 -8 -8 -5 -5 3 -9 -1 -9 -9 0 -11 4 -12 13 -4 7 6
19 7 26 3 10 -6 9 -3 -1 9 -16 20 -21 21 -21 6z"/>
<path d="M2110 571 c0 -5 7 -12 16 -15 14 -5 15 -4 4 9 -14 17 -20 19 -20 6z"/>
<path d="M5232 551 c2 -19 -4 -24 -12 -11 -7 11 -10 11 -10 2 0 -7 -4 -11 -9
-7 -5 3 -12 1 -15 -3 -9 -15 43 -7 60 9 13 14 13 16 0 16 -8 0 -15 -3 -14 -6z"/>
<path d="M2176 535 c4 -8 11 -15 16 -15 6 0 5 6 -2 15 -7 8 -14 15 -16 15 -2
0 -1 -7 2 -15z"/>
<path d="M2056 532 c-3 -5 1 -9 9 -9 8 0 12 4 9 9 -3 4 -7 8 -9 8 -2 0 -6 -4
-9 -8z"/>
<path d="M5257 525 c-4 -8 -3 -16 1 -19 4 -3 9 4 9 15 2 23 -3 25 -10 4z"/>
<path d="M2095 510 c3 -5 8 -10 11 -10 2 0 4 5 4 10 0 6 -5 10 -11 10 -5 0 -7
-4 -4 -10z"/>
<path d="M5095 510 c-3 -6 1 -13 10 -16 11 -5 13 -10 5 -19 -7 -8 -5 -12 5
-12 8 0 13 3 10 5 -3 3 3 15 12 26 10 12 11 16 4 9 -15 -13 -44 -6 -35 8 3 5
3 9 0 9 -3 0 -8 -5 -11 -10z"/>
<path d="M5170 469 c0 -5 5 -7 10 -4 6 3 10 8 10 11 0 2 -4 4 -10 4 -5 0 -10
-5 -10 -11z"/>
<path d="M5020 466 c0 -2 7 -7 16 -10 8 -3 12 -2 9 4 -6 10 -25 14 -25 6z"/>
<path d="M4966 452 c-3 -5 1 -9 9 -9 8 0 15 4 15 9 0 4 -4 8 -9 8 -6 0 -12 -4
-15 -8z"/>
<path d="M2319 423 c-13 -16 -12 -17 4 -4 16 13 21 21 13 21 -2 0 -10 -8 -17
-17z"/>
<path d="M2431 423 c8 -14 16 -18 20 -12 5 8 9 8 13 0 4 -6 4 -17 0 -23 -5 -9
-2 -9 9 1 9 7 17 18 17 24 0 6 -3 7 -7 4 -3 -4 -12 -2 -20 4 -7 6 -13 8 -13 4
0 -4 -7 -1 -17 6 -15 13 -15 12 -2 -8z"/>
<path d="M4996 432 c-2 -4 -1 -14 4 -22 7 -11 9 -9 7 8 -1 24 -3 26 -11 14z"/>
<path d="M5028 433 c7 -3 16 -2 19 1 4 3 -2 6 -13 5 -11 0 -14 -3 -6 -6z"/>
<path d="M4901 414 c0 -11 3 -14 6 -6 3 7 2 16 -1 19 -3 4 -6 -2 -5 -13z"/>
<path d="M2403 408 c-11 -19 -13 -39 -1 -32 5 3 7 9 4 12 -3 3 -1 11 5 19 6 7
9 13 6 13 -3 0 -9 -6 -14 -12z"/>
<path d="M2355 401 c-3 -5 -2 -12 3 -15 5 -3 9 1 9 9 0 17 -3 19 -12 6z"/>
<path d="M4868 393 c7 -3 16 -2 19 1 4 3 -2 6 -13 5 -11 0 -14 -3 -6 -6z"/>
<path d="M2580 369 c0 -5 5 -9 11 -9 5 0 8 -4 5 -8 -3 -5 7 -8 22 -7 39 2 77
-10 74 -24 -2 -9 3 -9 18 -1 18 10 24 7 21 -12 0 -5 4 -8 9 -8 6 0 10 5 10 10
0 6 0 13 0 17 0 4 -10 8 -22 8 -13 1 -33 7 -46 14 -12 6 -22 9 -22 5 0 -3 -7
0 -17 7 -9 8 -18 13 -20 12 -1 -2 -4 -3 -5 -2 -21 6 -38 5 -38 -2z"/>
<path d="M4785 369 c-4 -6 -4 -13 -1 -16 3 -4 6 -1 6 6 0 8 6 11 16 7 8 -3 12
-2 9 4 -8 13 -22 13 -30 -1z"/>
<path d="M2520 345 c-7 -9 -11 -17 -9 -20 3 -2 10 5 17 15 14 24 10 26 -8 5z"/>
<path d="M4830 356 c0 -2 7 -7 16 -10 8 -3 12 -2 9 4 -6 10 -25 14 -25 6z"/>
<path d="M5000 350 c-9 -6 -10 -10 -3 -10 6 0 15 5 18 10 8 12 4 12 -15 0z"/>
<path d="M4670 335 c0 -8 2 -15 4 -15 2 0 6 7 10 15 3 8 1 15 -4 15 -6 0 -10
-7 -10 -15z"/>
<path d="M4715 343 c3 -3 -2 -11 -11 -17 -13 -10 -13 -12 4 -12 19 0 24 19 9
31 -4 3 -5 2 -2 -2z"/>
<path d="M4433 307 c-10 -11 -13 -17 -6 -14 6 4 14 1 16 -5 4 -10 6 -10 6 0 1
6 5 12 11 12 5 0 8 -6 6 -12 -1 -7 -1 -10 1 -5 3 4 10 4 16 0 7 -3 9 -3 5 2
-4 4 -3 14 3 22 13 15 13 15 -18 18 -12 1 -30 -7 -40 -18z"/>
<path d="M4604 309 c-3 -6 -1 -16 5 -22 6 -6 11 -7 11 -3 0 5 8 2 18 -5 15
-13 16 -12 3 3 -7 10 -18 15 -24 11 -6 -4 -8 0 -4 10 7 19 2 23 -9 6z"/>
<path d="M4747 309 c7 -7 15 -10 18 -7 3 3 -2 9 -12 12 -14 6 -15 5 -6 -5z"/>
<path d="M2676 297 c3 -10 9 -15 12 -12 3 3 0 11 -7 18 -10 9 -11 8 -5 -6z"/>
<path d="M4373 303 c-13 -2 -23 -8 -23 -12 0 -5 -16 -7 -35 -6 -24 1 -39 -4
-45 -14 -7 -11 -9 -12 -10 -3 0 10 -3 10 -15 -2 -8 -8 -15 -17 -15 -19 0 -7
23 -3 39 7 8 5 16 4 21 -4 6 -9 9 -9 11 -1 3 7 11 13 19 14 8 2 21 6 28 10 14
10 15 6 3 -25 -7 -20 -6 -24 9 -24 11 0 16 5 12 11 -12 18 -9 55 3 45 7 -6 16
-5 23 2 13 13 16 29 5 27 -5 -1 -18 -4 -30 -6z"/>
<path d="M2756 285 c-3 -9 -11 -13 -17 -9 -8 5 -9 3 -4 -5 6 -10 11 -9 23 3 9
8 13 18 10 21 -3 3 -8 -1 -12 -10z"/>
<path d="M2893 277 c-1 -12 1 -17 5 -12 6 9 26 12 35 6 1 -2 13 -4 25 -7 16
-3 22 0 20 8 -3 7 -18 13 -34 13 -16 0 -34 3 -39 7 -6 4 -12 -3 -12 -15z"/>
<path d="M4206 264 c-8 -21 9 -25 21 -5 9 14 8 18 -3 18 -7 0 -15 -6 -18 -13z"/>
<path d="M4686 272 c-3 -5 1 -9 9 -9 8 0 12 4 9 9 -3 4 -7 8 -9 8 -2 0 -6 -4
-9 -8z"/>
<path d="M3041 261 c-8 -5 -9 -11 -3 -15 5 -3 12 1 16 9 6 17 6 18 -13 6z"/>
<path d="M2659 243 c-13 -17 -13 -17 6 -3 11 8 22 16 24 17 2 2 0 3 -6 3 -6 0
-17 -8 -24 -17z"/>
<path d="M2910 249 c0 -5 5 -7 10 -4 6 3 10 8 10 11 0 2 -4 4 -10 4 -5 0 -10
-5 -10 -11z"/>
<path d="M4390 242 c9 -19 30 -23 30 -5 0 4 -3 3 -7 0 -3 -4 -12 1 -20 11 -13
15 -13 15 -3 -6z"/>
<path d="M4519 258 c-5 -18 -6 -38 -1 -34 7 8 12 36 6 36 -2 0 -4 -1 -5 -2z"/>
<path d="M4059 237 c5 -5 7 -17 4 -26 -4 -12 -3 -13 5 -2 7 9 12 10 16 2 4 -6
12 -11 19 -11 6 0 1 7 -11 16 -12 8 -20 19 -18 23 3 4 -2 8 -10 8 -9 0 -11 -4
-5 -10z"/>
<path d="M2750 236 c0 -2 7 -7 16 -10 8 -3 12 -2 9 4 -6 10 -25 14 -25 6z"/>
<path d="M3056 232 c-2 -4 -1 -14 4 -22 7 -11 9 -9 7 8 -1 24 -3 26 -11 14z"/>
<path d="M3352 211 c-7 -18 -7 -29 -2 -26 6 4 10 14 11 23 0 11 2 12 6 4 2 -6
10 -9 16 -5 7 4 8 0 4 -13 -7 -18 -7 -18 8 0 20 26 19 40 -2 32 -9 -4 -20 -2
-23 5 -5 6 -12 -2 -18 -20z"/>
<path d="M3081 214 c0 -11 3 -14 6 -6 3 7 2 16 -1 19 -3 4 -6 -2 -5 -13z"/>
<path d="M3606 219 c3 -6 0 -17 -8 -26 -8 -11 -8 -14 -1 -10 7 4 16 0 21 -9 6
-11 11 -13 16 -5 4 6 2 11 -4 11 -6 0 -8 5 -5 10 5 8 12 7 23 -2 12 -10 14
-10 8 -1 -5 9 0 12 15 10 14 -1 23 4 24 15 3 14 0 16 -15 8 -9 -5 -20 -6 -24
-3 -3 3 -6 0 -6 -8 0 -12 -2 -12 -9 0 -5 8 -17 16 -25 17 -9 1 -13 -2 -10 -7z
m15 -22 c-10 -9 -11 -8 -5 6 3 10 9 15 12 12 3 -3 0 -11 -7 -18z"/>
<path d="M4248 219 c-4 -11 1 -15 17 -15 13 0 21 4 19 8 -3 5 -9 6 -14 3 -4
-3 -10 0 -12 7 -3 8 -6 7 -10 -3z"/>
<path d="M3416 205 c-3 -8 -1 -15 4 -15 6 0 10 7 10 15 0 8 -2 15 -4 15 -2 0
-6 -7 -10 -15z"/>
<path d="M4213 205 c0 -8 4 -12 9 -9 5 3 6 10 3 15 -9 13 -12 11 -12 -6z"/>
<path d="M3247 189 c7 -7 15 -10 18 -7 3 3 -2 9 -12 12 -14 6 -15 5 -6 -5z"/>
<path d="M4156 192 c-3 -5 1 -9 9 -9 8 0 12 4 9 9 -3 4 -7 8 -9 8 -2 0 -6 -4
-9 -8z"/>
<path d="M3133 175 c0 -8 4 -12 9 -9 5 3 6 10 3 15 -9 13 -12 11 -12 -6z"/>
<path d="M3901 168 c-14 -23 -14 -23 8 -4 22 20 25 26 13 26 -4 0 -13 -10 -21
-22z"/>
<path d="M3205 169 c-3 -4 2 -6 10 -5 21 3 28 13 10 13 -9 0 -18 -4 -20 -8z"/>
<path d="M3400 175 c0 -2 6 -8 13 -14 10 -8 14 -7 14 2 0 8 -6 14 -14 14 -7 0
-13 -1 -13 -2z"/>
<path d="M3514 173 c3 -4 22 -7 41 -8 20 -2 34 0 31 3 -3 3 -22 6 -42 8 -19 1
-33 0 -30 -3z"/>
<path d="M3990 171 c0 -6 4 -13 10 -16 6 -3 7 1 4 9 -7 18 -14 21 -14 7z"/>
<path d="M4119 163 c-13 -16 -12 -17 4 -4 16 13 21 21 13 21 -2 0 -10 -8 -17
-17z"/>
<path d="M4175 161 c-3 -5 -2 -12 3 -15 5 -3 9 1 9 9 0 17 -3 19 -12 6z"/>
<path d="M3175 150 c3 -5 8 -10 11 -10 2 0 4 5 4 10 0 6 -5 10 -11 10 -5 0 -7
-4 -4 -10z"/>
<path d="M3479 143 c-13 -16 -12 -17 4 -4 16 13 21 21 13 21 -2 0 -10 -8 -17
-17z"/>
<path d="M3513 145 c0 -8 4 -12 9 -9 5 3 6 10 3 15 -9 13 -12 11 -12 -6z"/>
<path d="M3946 148 c3 -4 9 -8 15 -8 5 0 9 4 9 8 0 5 -7 9 -15 9 -8 0 -12 -4
-9 -9z"/>
<path d="M3575 141 c-3 -5 -2 -12 3 -15 5 -3 9 1 9 9 0 17 -3 19 -12 6z"/>
<path d="M3773 135 c0 -8 4 -12 9 -9 5 3 6 10 3 15 -9 13 -12 11 -12 -6z"/>
<path d="M3270 136 c0 -2 7 -7 16 -10 8 -3 12 -2 9 4 -6 10 -25 14 -25 6z"/>
<path d="M3610 128 c0 -10 17 -10 24 0 3 5 -1 9 -9 9 -8 0 -15 -4 -15 -9z"/>
<path d="M3726 128 c3 -4 9 -8 15 -8 5 0 9 4 9 8 0 5 -7 9 -15 9 -8 0 -12 -4
-9 -9z"/>
<path d="M3875 110 c3 -5 8 -10 11 -10 2 0 4 5 4 10 0 6 -5 10 -11 10 -5 0 -7
-4 -4 -10z"/>
<path d="M3950 110 c0 -5 5 -10 11 -10 5 0 7 5 4 10 -3 6 -8 10 -11 10 -2 0
-4 -4 -4 -10z"/>
<path d="M3836 83 c-6 -14 -5 -15 5 -6 7 7 10 15 7 18 -3 3 -9 -2 -12 -12z"/>
</g>
</svg>
